<svg version="1.2" xmlns="http://www.w3.org/2000/svg" viewBox="0 0 3048 863" width="3048" height="863">
	<title>LOGO_ALIMENTOS_MARY_HORIZONTAL_ROJO (3)-ai</title>
	<style>
		.s0 { fill: #ffffff } 
		.s1 { fill: #e8302b } 
		.s2 { fill: #000000 } 
	</style>
	<g id="_Artboards_">
		<path id="Artboard 1" class="s0" d="m0 874.6h3058.3v-874.2h-3058.3z"/>
		<path id="Mesa de trabajo 6" class="s0" d="m3078.3 874.6h3058.4v-874.2h-3058.4z"/>
		<path id="Mesa de trabajo 7" class="s0" d="m6156.7 874.6h3058.3v-874.2h-3058.3z"/>
		<path id="Mesa de trabajo 7 copia 2" class="s0" d="m3078.3 1892.5h3058.4v-874.2h-3058.4z"/>
		<path id="Mesa de trabajo 7 copia 3" class="s0" d="m0 1892.5h3058.3v-874.2h-3058.3z"/>
		<path id="Artboard 1 copia" class="s0" d="m0 3173.5h3058.3v-874.3h-3058.3z"/>
		<path id="Artboard 1 copia 2" class="s0" d="m3078.3 3173.5h3058.4v-874.3h-3058.4z"/>
		<path id="Artboard 1 copia 3" class="s0" d="m6156.7 3173.5h3058.3v-874.3h-3058.3z"/>
		<path id="Artboard 1 copia 4" class="s0" d="m0 4093h3058.3v-874.2h-3058.3z"/>
		<path id="Artboard 1 copia 5" class="s0" d="m3078.3 4093h3058.4v-874.2h-3058.4z"/>
	</g>
	<g id="Layer 1">
		<path id="&lt;Path&gt;" class="s1" d="m3058.3 4093h-3058.3v-874.2h3058.3z"/>
		<path id="&lt;Path&gt;" class="s2" d="m6136.7 1892.5h-3058.4v-874.2h3058.4z"/>
		<path id="&lt;Path&gt;" class="s1" d="m3058.3 1892.5h-3058.3v-874.2h3058.3z"/>
		<g id="&lt;Group&gt;">
			<g id="&lt;Group&gt;">
				<path id="&lt;Path&gt;" class="s1" d="m2762.2 2451.3h-18.1c-60.3 0-86.6 61.6-111.4 116.1-24.8-54.5-51.4-116.1-111.4-116.1h-18.1l109.3 190.3q20.2 0 40.4 0z"/>
				<path id="&lt;Path&gt;" class="s1" d="m2944.3 2706l-9.1-15.6c-30.2-52.3-96.6-44.2-156.2-38.5 34.8-48.7 74.8-102.5 44.8-154.5l-9-15.7-110.2 189.8q10.1 17.5 20.2 35z"/>
				<path id="&lt;Path&gt;" class="s1" d="m2814.7 2991l9.1-15.6c30.2-52.3-10.1-105.8-44.8-154.6 59.6 5.8 126.2 13.6 156.2-38.4l9.1-15.7-219.5-0.4q-10.1 17.4-20.2 34.9z"/>
				<path id="&lt;Path&gt;" class="s1" d="m2503.1 3021.4h18.2c60.3 0 86.5-61.6 111.4-116.1 24.8 54.5 51.3 116.1 111.4 116.1h18.1l-109.4-190.3q-20.1 0-40.3 0z"/>
				<path id="&lt;Path&gt;" class="s1" d="m2321.1 2766.7l9 15.7c30.2 52.2 96.7 44.1 156.3 38.4-34.8 48.8-74.9 102.5-44.9 154.5l9.1 15.7 110.1-189.8q-10.1-17.5-20.2-35z"/>
				<path id="&lt;Path&gt;" class="s1" d="m2450.6 2481.7l-9 15.7c-30.2 52.2 10 105.7 44.8 154.5-59.6-5.8-126.2-13.6-156.2 38.4l-9.1 15.7 219.5 0.4q10.1-17.4 20.1-34.9z"/>
			</g>
			<path id="&lt;Compound Path&gt;" fill-rule="evenodd" class="s1" d="m241.6 2820l-20.7-52.9h-66.8l-20.4 52.9h-19.6l65.8-167.2h16.3l65.5 167.2zm-26.7-70.4l-19.4-51.6c-2.5-6.5-5.1-14.5-7.8-24-1.6 7.3-4 15.3-7.2 24l-19.6 51.6zm60.7 70.4v-166.5h19.4v149h73.4v17.5zm112 0v-166.5h19.4v166.5zm129.7 0l-56.5-147.6h-0.9q1.6 17.5 1.6 41.7v105.9h-17.9v-166.5h29.2l52.7 137.4h0.9l53.2-137.4h29v166.5h-19.4v-107.3q0-18.4 1.6-40.1h-0.9l-57 147.4zm220.7 0h-92.8v-166.5h92.8v17.3h-73.5v53.6h69v17h-69v61.4h73.5zm157.9 0h-22l-91-139.8h-1c1.2 16.4 1.9 31.4 1.9 45.1v94.7h-17.9v-166.6h21.8l90.8 139.2h0.9c-0.1-2-0.4-8.6-1-19.8-0.5-11.1-0.7-19-0.6-23.8v-95.6h18.1zm88 0h-19.3v-149.2h-52.7v-17.3h124.7v17.3h-52.7zm208.7-83.5c0 26.7-6.8 47.6-20.2 62.9q-20.2 22.9-56.3 22.9-36.8 0-56.7-22.5-20-22.5-20-63.5c0-27.1 6.7-48.1 20-63q20.1-22.4 57-22.4c23.9 0 42.6 7.5 56 22.7q20.2 22.8 20.2 62.9zm-132.7 0q0 33.8 14.4 51.3 14.4 17.5 41.8 17.5 27.8 0 41.9-17.4 14.1-17.5 14.1-51.4c0-22.4-4.7-39.4-14.1-51q-14-17.4-41.6-17.4c-18.5 0-32.5 5.9-42.1 17.5q-14.4 17.5-14.4 50.9zm254.8 39.2q0 22-16 34.3c-10.6 8.2-25 12.3-43.3 12.3q-29.6 0-45.5-7.7v-18.7c6.8 2.9 14.2 5.2 22.3 6.9q12 2.5 23.9 2.5 19.4 0 29.2-7.4 9.8-7.3 9.8-20.4c0-5.7-1.2-10.5-3.5-14.1-2.3-3.7-6.2-7.1-11.6-10.3q-8.2-4.6-24.8-10.5-23.2-8.4-33.2-19.7-10-11.4-10-29.8 0-19.2 14.5-30.6 14.5-11.4 38.3-11.4 24.8 0 45.6 9.1l-6 16.8q-20.6-8.6-40.1-8.6c-10.2 0-18.3 2.2-24 6.6-5.8 4.4-8.7 10.5-8.7 18.4 0 5.7 1.1 10.4 3.2 14.1q3.2 5.6 10.8 10.2 7.5 4.6 23.2 10.2 26.1 9.3 36 20c6.6 7.1 9.9 16.4 9.9 27.8z"/>
			<g id="&lt;Group&gt;">
				<path id="&lt;Path&gt;" class="s1" d="m2054.8 2658h-73.3l83.6 157.6c-5.3 14.8-21.2 16.6-33.6 16.6-4.5 0-9.2-0.5-14.3-1.3l-3.9 32c10.5 2.7 21.4 3.5 32.2 3.5 43.9 0 70.6-17.5 83.9-50.6l62.7-157.8h-68.5l-27.8 82.6z"/>
				<path id="&lt;Path&gt;" class="s1" d="m1946.6 2704.5c7.6 0 15.9 1.8 23.5 3.7v-49.2c-15.6-3.7-30.1-4-46.5-4-46.6 0-82.5 32-82.5 73v93.1h67.7v-79c0-19.4 7.9-37.6 37.8-37.6z"/>
				<path id="&lt;Compound Path&gt;" fill-rule="evenodd" class="s1" d="m1824.3 2740.7l0.1 35.7c0 25.3-22.4 44.9-44.7 44.9h-48.1c-53.5 0-86.3-14.6-86.3-52.5 0-42.9 58.3-54.5 115.4-46.1l0.2-7.9c0.3-17.7-27.1-20.6-39-20.6-18.8 0-41.5 2.9-60.5 7.6v-37.5c23-6.9 46.8-8.7 71.4-8.7 57.9 0 91.7 28.8 91.5 85.1zm-87.9 8c-16.9 0-24.6 8.1-24.6 21 0 10.9 6.6 18.8 22.2 18.8 11.1 0 25.7-4.8 25.7-17.7v-19.5c-11.1-2.1-17.2-2.6-23.3-2.6z"/>
				<path id="&lt;Path&gt;" class="s1" d="m1629.4 2821.1v-198.3h-18.9c-62.9 0-90.3 64.2-116.1 121-25.9-56.8-53.6-121-116.2-121h-18.8v198.3h62.2v-107.1l51.7 107.1q21.1 0 42.1 0 25.9-53.5 51.7-107.1v107.1z"/>
			</g>
		</g>
		<g id="&lt;Group&gt;">
			<g id="&lt;Group&gt;">
				<path id="&lt;Path&gt;" class="s1" d="m2762.2 152.5h-18.1c-60.3 0-86.6 61.6-111.4 116.1-24.8-54.5-51.4-116.1-111.4-116.1h-18.1l109.3 190.3q20.2 0 40.4 0z"/>
				<path id="&lt;Path&gt;" class="s1" d="m2944.3 407.2l-9.1-15.7c-30.2-52.2-96.6-44.2-156.2-38.4 34.8-48.8 74.8-102.5 44.8-154.5l-9-15.7-110.2 189.8q10.1 17.5 20.2 34.9z"/>
				<path id="&lt;Path&gt;" class="s1" d="m2814.7 692.2l9.1-15.7c30.2-52.2-10.1-105.7-44.8-154.5 59.6 5.8 126.2 13.6 156.2-38.4l9.1-15.7-219.5-0.5q-10.1 17.5-20.2 35z"/>
				<path id="&lt;Path&gt;" class="s1" d="m2503.1 722.5h18.2c60.3 0 86.5-61.6 111.4-116.1 24.8 54.5 51.3 116.1 111.4 116.1h18.1l-109.4-190.2q-20.1 0-40.3 0z"/>
				<path id="&lt;Path&gt;" class="s1" d="m2321.1 467.8l9 15.7c30.2 52.3 96.7 44.2 156.3 38.5-34.8 48.7-74.9 102.5-44.9 154.5l9.1 15.7 110.1-189.9q-10.1-17.4-20.2-34.9z"/>
				<path id="&lt;Path&gt;" class="s1" d="m2450.6 182.8l-9 15.7c-30.2 52.3 10 105.8 44.8 154.5-59.6-5.7-126.2-13.5-156.2 38.5l-9.1 15.7 219.5 0.4q10.1-17.5 20.1-34.9z"/>
			</g>
			<path id="&lt;Compound Path&gt;" fill-rule="evenodd" class="s1" d="m241.6 521.2l-20.7-53h-66.8l-20.4 53h-19.6l65.8-167.2h16.3l65.5 167.2zm-26.7-70.4l-19.4-51.6c-2.5-6.6-5.1-14.6-7.8-24.1-1.6 7.3-4 15.3-7.2 24.1l-19.6 51.6zm60.7 70.4v-166.5h19.4v149h73.4v17.5zm112 0v-166.5h19.4v166.5zm129.7 0l-56.5-147.6h-0.9q1.6 17.5 1.6 41.7v105.9h-17.9v-166.5h29.2l52.7 137.3h0.9l53.2-137.3h29v166.5h-19.4v-107.3q0-18.5 1.6-40.1h-0.9l-57 147.4zm220.7 0h-92.8v-166.5h92.8v17.2h-73.5v53.7h69v17h-69v61.3h73.5zm157.9 0h-22l-91-139.7h-1c1.2 16.4 1.9 31.4 1.9 45.1v94.6h-17.9v-166.5h21.8l90.8 139.2h0.9c-0.1-2.1-0.4-8.6-1-19.8-0.5-11.1-0.7-19-0.6-23.9v-95.5h18.1zm88 0h-19.3v-149.3h-52.7v-17.2h124.7v17.2h-52.7zm208.7-83.4c0 26.6-6.8 47.6-20.2 62.9q-20.2 22.9-56.3 22.9-36.8 0-56.7-22.5-20-22.5-20-63.5c0-27.2 6.7-48.1 20-63.1q20.1-22.4 57-22.4c23.9 0 42.6 7.6 56 22.8q20.2 22.8 20.2 62.9zm-132.7-0.1q0 33.9 14.4 51.3 14.4 17.5 41.8 17.5 27.8 0 41.9-17.4 14.1-17.4 14.1-51.4c0-22.4-4.7-39.3-14.1-50.9q-14-17.4-41.6-17.4c-18.5 0-32.5 5.8-42.1 17.5q-14.4 17.5-14.4 50.8zm254.8 39.3q0 22-16 34.3c-10.6 8.2-25 12.3-43.3 12.3q-29.6-0.1-45.5-7.7v-18.7c6.8 2.9 14.2 5.2 22.3 6.8q12 2.5 23.9 2.5 19.4 0 29.2-7.3 9.8-7.3 9.8-20.4c0-5.8-1.2-10.5-3.5-14.2-2.3-3.7-6.2-7-11.6-10.2q-8.2-4.7-24.8-10.6-23.2-8.3-33.2-19.7-10-11.3-10-29.7 0-19.3 14.5-30.6 14.5-11.4 38.3-11.4 24.8 0 45.6 9.1l-6 16.8q-20.6-8.7-40.1-8.7c-10.2 0-18.3 2.2-24 6.6-5.8 4.5-8.7 10.6-8.7 18.4 0 5.8 1.1 10.5 3.2 14.2q3.2 5.5 10.8 10.2 7.5 4.6 23.2 10.1 26.1 9.4 36 20.1c6.6 7.1 9.9 16.4 9.9 27.8z"/>
			<g id="&lt;Group&gt;">
				<path id="&lt;Path&gt;" class="s1" d="m2054.8 359.1h-73.3l83.6 157.6c-5.3 14.8-21.2 16.7-33.6 16.7-4.5 0-9.2-0.5-14.3-1.3l-3.9 32c10.5 2.6 21.4 3.4 32.2 3.4 43.9 0 70.6-17.4 83.9-50.5l62.7-157.9h-68.5l-27.8 82.7z"/>
				<path id="&lt;Path&gt;" class="s1" d="m1946.6 405.7c7.6 0 15.9 1.8 23.5 3.7v-49.2c-15.6-3.7-30.1-4-46.5-4-46.6 0-82.5 32-82.5 73v93.1h67.7v-79.1c0-19.3 7.9-37.5 37.8-37.5z"/>
				<path id="&lt;Compound Path&gt;" fill-rule="evenodd" class="s1" d="m1824.3 441.8l0.1 35.7c0 25.4-22.4 44.9-44.7 44.9l-48.1 0.1c-53.5 0-86.3-14.6-86.3-52.6 0-42.8 58.3-54.5 115.4-46l0.2-7.9c0.3-17.7-27.1-20.7-39-20.7-18.8 0-41.5 3-60.5 7.7v-37.5c23-6.9 46.8-8.8 71.4-8.8 57.9 0 91.7 28.8 91.5 85.1zm-87.9 8c-16.9 0-24.6 8.1-24.6 21.1 0 10.8 6.6 18.8 22.2 18.8 11.1 0 25.7-4.9 25.7-17.8v-19.4c-11.1-2.1-17.2-2.7-23.3-2.7z"/>
				<path id="&lt;Path&gt;" class="s1" d="m1629.4 522.3v-198.4h-18.9c-62.9 0-90.3 64.2-116.1 121-25.9-56.8-53.6-121-116.2-121h-18.8v198.4h62.2v-107.1l51.7 107.1q21.1 0 42.1 0 25.9-53.6 51.7-107.1v107.1z"/>
			</g>
		</g>
		<g id="&lt;Group&gt;">
			<g id="&lt;Group&gt;">
				<path id="&lt;Path&gt;" class="s0" d="m5840.6 152h-18.1c-60.4 0-86.6 61.6-111.4 116.1-24.9-54.5-51.4-116.1-111.5-116.1h-18.1l109.4 190.3q20.2 0 40.3 0z"/>
				<path id="&lt;Path&gt;" class="s0" d="m6022.6 406.7l-9-15.7c-30.2-52.2-96.7-44.2-156.3-38.4 34.8-48.8 74.9-102.5 44.9-154.5l-9.1-15.7-110.1 189.8q10.1 17.5 20.2 34.9z"/>
				<path id="&lt;Path&gt;" class="s0" d="m5893.1 691.7l9-15.7c30.2-52.2-10-105.7-44.8-154.5 59.6 5.8 126.2 13.6 156.2-38.4l9.1-15.7-219.5-0.5q-10 17.5-20.1 35z"/>
				<path id="&lt;Path&gt;" class="s0" d="m5581.5 722h18.1c60.4 0 86.6-61.6 111.4-116.1 24.8 54.5 51.4 116.1 111.4 116.1h18.1l-109.3-190.2q-20.2 0-40.4 0z"/>
				<path id="&lt;Path&gt;" class="s0" d="m5399.4 467.3l9.1 15.7c30.2 52.3 96.6 44.2 156.2 38.5-34.8 48.7-74.8 102.5-44.8 154.5l9.1 15.7 110.1-189.9q-10.1-17.4-20.2-34.9z"/>
				<path id="&lt;Path&gt;" class="s0" d="m5529 182.3l-9.1 15.7c-30.2 52.3 10.1 105.8 44.9 154.5-59.7-5.7-126.3-13.5-156.3 38.5l-9 15.7 219.4 0.4q10.1-17.5 20.2-34.9z"/>
			</g>
			<path id="&lt;Compound Path&gt;" fill-rule="evenodd" class="s0" d="m3320 520.7l-20.7-53h-66.8l-20.5 53h-19.6l65.9-167.2h16.3l65.5 167.2zm-26.8-70.4l-19.4-51.6c-2.5-6.6-5.1-14.6-7.7-24.1-1.7 7.3-4.1 15.3-7.2 24.1l-19.6 51.6zm60.6 70.4v-166.5h19.4v149h73.4v17.5zm112.1 0v-166.5h19.3v166.5zm129.8 0l-56.6-147.6h-0.8q1.5 17.5 1.5 41.7v105.9h-17.8v-166.5h29.1l52.8 137.3h0.9l53.2-137.3h28.9v166.5h-19.4v-107.3q0.1-18.5 1.6-40.1h-0.9l-56.9 147.4zm220.6 0h-92.8v-166.5h92.8v17.2h-73.4v53.7h69v17h-69v61.3h73.4zm158 0h-22.1l-91-139.7h-0.9c1.2 16.4 1.8 31.4 1.8 45.1v94.6h-17.9v-166.5h21.9l90.8 139.2h0.9c-0.2-2.1-0.5-8.6-1-19.8-0.6-11.1-0.8-19-0.6-23.9v-95.5h18.1zm88 0h-19.4v-149.3h-52.7v-17.2h124.8v17.2h-52.7zm208.7-83.4c0 26.6-6.8 47.6-20.3 62.9q-20.2 22.9-56.2 22.9-36.8 0-56.8-22.5-20-22.5-20-63.5c0-27.2 6.7-48.1 20.1-63.1q20-22.4 56.9-22.4c24 0 42.6 7.6 56.1 22.8q20.2 22.8 20.2 62.9zm-132.8-0.1q0 33.9 14.4 51.3 14.5 17.5 41.9 17.5 27.7 0 41.8-17.4 14.1-17.4 14.1-51.4c0-22.4-4.6-39.3-14-50.9q-14.1-17.4-41.7-17.4c-18.4 0-32.4 5.8-42.1 17.5q-14.4 17.5-14.4 50.8zm254.8 39.3q0 22-15.9 34.3c-10.7 8.2-25.1 12.3-43.3 12.3q-29.6-0.1-45.6-7.7v-18.7c6.9 2.9 14.3 5.2 22.3 6.8q12.1 2.5 24 2.5 19.3 0 29.1-7.3 9.8-7.3 9.8-20.4c0-5.8-1.1-10.5-3.4-14.2-2.4-3.7-6.2-7-11.6-10.2q-8.2-4.7-24.9-10.6-23.2-8.3-33.1-19.7-10-11.3-10-29.7 0-19.3 14.4-30.6 14.5-11.4 38.3-11.4 24.9 0 45.7 9.1l-6 16.8q-20.7-8.7-40.2-8.7c-10.2 0-18.2 2.2-24 6.6-5.8 4.5-8.6 10.6-8.6 18.4 0 5.8 1 10.5 3.1 14.2q3.2 5.5 10.8 10.2 7.6 4.6 23.2 10.1 26.2 9.4 36.1 20.1c6.5 7.1 9.8 16.4 9.8 27.8z"/>
			<g id="&lt;Group&gt;">
				<path id="&lt;Path&gt;" class="s0" d="m5133.1 358.6h-73.2l83.6 157.6c-5.3 14.8-21.2 16.7-33.6 16.7-4.5 0-9.3-0.5-14.3-1.3l-4 32c10.6 2.6 21.4 3.4 32.3 3.4 43.9 0 70.6-17.4 83.8-50.5l62.7-157.9h-68.5l-27.8 82.7z"/>
				<path id="&lt;Path&gt;" class="s0" d="m5024.9 405.2c7.7 0 15.9 1.8 23.6 3.7v-49.2c-15.6-3.7-30.2-4-46.6-4-46.5 0-82.5 32-82.5 73v93.1h67.7v-79.1c0-19.3 7.9-37.5 37.8-37.5z"/>
				<path id="&lt;Compound Path&gt;" fill-rule="evenodd" class="s0" d="m4902.6 441.3l0.1 35.7c0 25.4-22.4 44.9-44.7 44.9l-48 0.1c-53.5 0-86.4-14.6-86.4-52.6 0-42.8 58.4-54.5 115.5-46l0.1-7.9c0.4-17.7-27.1-20.7-39-20.7-18.8 0-41.4 3-60.5 7.7v-37.5c23-6.9 46.8-8.8 71.4-8.8 58 0 91.7 28.8 91.5 85.1zm-87.8 8c-17 0-24.6 8.1-24.6 21.1 0 10.8 6.6 18.8 22.2 18.8 11.1 0 25.6-4.9 25.6-17.8v-19.4c-11.1-2.1-17.2-2.7-23.2-2.7z"/>
				<path id="&lt;Path&gt;" class="s0" d="m4707.7 521.8v-198.4h-18.9c-62.9 0-90.2 64.2-116.1 121-25.9-56.8-53.5-121-116.1-121h-18.9v198.4h62.2v-107.1l51.8 107.1q21 0 42 0 25.9-53.6 51.8-107.1l-0.1 107.1z"/>
			</g>
		</g>
		<g id="&lt;Group&gt;">
			<g id="&lt;Group&gt;">
				<path id="&lt;Path&gt;" class="s2" d="m8918.9 152h-18.1c-60.3 0-86.6 61.6-111.4 116.1-24.8-54.5-51.4-116.1-111.4-116.1h-18.1l109.3 190.3q20.2 0 40.4 0z"/>
				<path id="&lt;Path&gt;" class="s2" d="m9101 406.7l-9.1-15.7c-30.2-52.2-96.6-44.2-156.2-38.4 34.8-48.8 74.8-102.5 44.8-154.5l-9-15.7-110.2 189.8q10.1 17.5 20.2 34.9z"/>
				<path id="&lt;Path&gt;" class="s2" d="m8971.4 691.7l9.1-15.7c30.2-52.2-10.1-105.7-44.8-154.5 59.6 5.8 126.2 13.6 156.2-38.4l9-15.7-219.4-0.5q-10.1 17.5-20.2 35z"/>
				<path id="&lt;Path&gt;" class="s2" d="m8659.8 722h18.2c60.3 0 86.5-61.6 111.4-116.1 24.8 54.5 51.3 116.1 111.4 116.1h18.1l-109.4-190.2q-20.1 0-40.3 0z"/>
				<path id="&lt;Path&gt;" class="s2" d="m8477.8 467.3l9 15.7c30.2 52.3 96.7 44.2 156.3 38.5-34.8 48.7-74.9 102.5-44.9 154.5l9.1 15.7 110.1-189.9q-10.1-17.4-20.2-34.9z"/>
				<path id="&lt;Path&gt;" class="s2" d="m8607.3 182.3l-9 15.7c-30.2 52.3 10 105.8 44.8 154.5-59.6-5.7-126.2-13.5-156.2 38.5l-9.1 15.7 219.5 0.4q10.1-17.5 20.1-34.9z"/>
			</g>
			<path id="&lt;Compound Path&gt;" fill-rule="evenodd" class="s2" d="m6398.3 520.7l-20.7-53h-66.8l-20.4 53h-19.6l65.8-167.2h16.3l65.5 167.2zm-26.7-70.4l-19.4-51.6c-2.5-6.6-5.1-14.6-7.8-24.1-1.6 7.3-4 15.3-7.2 24.1l-19.6 51.6zm60.7 70.4v-166.5h19.4v149h73.4v17.5zm112 0v-166.5h19.4v166.5zm129.7 0l-56.5-147.6h-0.9q1.6 17.5 1.6 41.7v105.9h-17.9v-166.5h29.2l52.7 137.3h0.9l53.2-137.3h29v166.5h-19.4v-107.3q0-18.5 1.6-40.1h-0.9l-57 147.4zm220.7 0h-92.8v-166.5h92.8v17.2h-73.5v53.7h69v17h-69v61.3h73.5zm157.9 0h-22l-91-139.7h-1c1.2 16.4 1.9 31.4 1.9 45.1v94.6h-17.9v-166.5h21.8l90.8 139.2h0.9c-0.1-2.1-0.4-8.6-1-19.8-0.5-11.1-0.7-19-0.6-23.9v-95.5h18.1zm88 0h-19.3v-149.3h-52.7v-17.2h124.7v17.2h-52.7zm208.7-83.4c0 26.6-6.8 47.6-20.2 62.9q-20.2 22.9-56.3 22.9-36.8 0-56.7-22.5-20-22.5-20-63.5c0-27.2 6.7-48.1 20-63.1q20.1-22.4 57-22.4c23.9 0 42.6 7.6 56 22.8q20.2 22.8 20.2 62.9zm-132.7-0.1q0 33.9 14.4 51.3 14.4 17.5 41.8 17.5 27.8 0 41.9-17.4 14.1-17.4 14.1-51.4c0-22.4-4.7-39.3-14.1-50.9q-14-17.4-41.6-17.4c-18.5 0-32.5 5.8-42.1 17.5q-14.4 17.5-14.4 50.8zm254.8 39.3q0 22-16 34.3c-10.6 8.2-25 12.3-43.3 12.3q-29.6-0.1-45.5-7.7v-18.7c6.8 2.9 14.2 5.2 22.3 6.8q12 2.5 23.9 2.5 19.4 0 29.2-7.3 9.8-7.3 9.8-20.4c0-5.8-1.2-10.5-3.5-14.2-2.3-3.7-6.2-7-11.6-10.2q-8.2-4.7-24.8-10.6-23.2-8.3-33.2-19.7-10-11.3-10-29.7 0-19.3 14.5-30.6 14.5-11.4 38.3-11.4 24.8 0 45.6 9.1l-6 16.8q-20.6-8.7-40.1-8.7c-10.2 0-18.3 2.2-24 6.6-5.8 4.5-8.7 10.6-8.7 18.4 0 5.8 1.1 10.5 3.2 14.2q3.2 5.5 10.8 10.2 7.5 4.6 23.2 10.1 26.1 9.4 36 20.1c6.6 7.1 9.9 16.4 9.9 27.8z"/>
			<g id="&lt;Group&gt;">
				<path id="&lt;Path&gt;" class="s2" d="m8211.5 358.6h-73.3l83.6 157.6c-5.3 14.8-21.2 16.7-33.6 16.7-4.5 0-9.2-0.5-14.3-1.3l-3.9 32c10.5 2.6 21.4 3.4 32.2 3.4 43.9 0 70.6-17.4 83.9-50.5l62.7-157.9h-68.5l-27.8 82.7z"/>
				<path id="&lt;Path&gt;" class="s2" d="m8103.3 405.2c7.6 0 15.8 1.8 23.5 3.7v-49.2c-15.6-3.7-30.1-4-46.5-4-46.6 0-82.5 32-82.5 73v93.1h67.7v-79.1c0-19.3 7.9-37.5 37.8-37.5z"/>
				<path id="&lt;Compound Path&gt;" fill-rule="evenodd" class="s2" d="m7981 441.3l0.1 35.7c0 25.4-22.4 44.9-44.7 44.9l-48.1 0.1c-53.5 0-86.3-14.6-86.3-52.6 0-42.8 58.3-54.5 115.4-46l0.2-7.9c0.3-17.7-27.1-20.7-39-20.7-18.8 0-41.5 3-60.5 7.7v-37.5c23-6.9 46.8-8.8 71.4-8.8 57.9 0 91.7 28.8 91.5 85.1zm-87.9 8c-16.9 0-24.6 8.1-24.6 21.1 0 10.8 6.6 18.8 22.2 18.8 11.1 0 25.7-4.9 25.7-17.8v-19.4c-11.1-2.1-17.2-2.7-23.3-2.7z"/>
				<path id="&lt;Path&gt;" class="s2" d="m7786.1 521.8v-198.4h-18.9c-62.9 0-90.3 64.2-116.1 121-25.9-56.8-53.6-121-116.2-121h-18.9v198.4h62.3v-107.1l51.7 107.1q21.1 0 42.1 0 25.9-53.6 51.7-107.1v107.1z"/>
			</g>
		</g>
		<g id="&lt;Group&gt;">
			<g id="&lt;Group&gt;">
				<path id="&lt;Path&gt;" class="s0" d="m5840.6 1169.9h-18.1c-60.4 0-86.6 61.6-111.4 116.1-24.9-54.5-51.4-116.1-111.5-116.1h-18.1l109.4 190.3q20.2 0 40.3 0z"/>
				<path id="&lt;Path&gt;" class="s0" d="m6022.6 1424.6l-9-15.7c-30.2-52.3-96.7-44.2-156.3-38.4 34.8-48.8 74.9-102.6 44.9-154.6l-9.1-15.6-110.1 189.8q10.1 17.5 20.2 34.9z"/>
				<path id="&lt;Path&gt;" class="s0" d="m5893.1 1709.6l9-15.7c30.2-52.3-10-105.8-44.8-154.5 59.6 5.7 126.2 13.5 156.2-38.5l9.1-15.6-219.5-0.5q-10 17.5-20.1 34.9z"/>
				<path id="&lt;Path&gt;" class="s0" d="m5581.5 1739.9h18.1c60.4 0 86.6-61.6 111.4-116.1 24.8 54.5 51.4 116.1 111.4 116.1h18.1l-109.3-190.3q-20.2 0-40.4 0z"/>
				<path id="&lt;Path&gt;" class="s0" d="m5399.4 1485.2l9.1 15.7c30.2 52.3 96.6 44.2 156.2 38.4-34.8 48.8-74.8 102.6-44.8 154.6l9.1 15.6 110.1-189.8q-10.1-17.5-20.2-34.9z"/>
				<path id="&lt;Path&gt;" class="s0" d="m5529 1200.2l-9.1 15.7c-30.2 52.3 10.1 105.8 44.9 154.5-59.7-5.7-126.3-13.6-156.3 38.5l-9 15.6 219.4 0.5q10.1-17.5 20.2-35z"/>
			</g>
			<path id="&lt;Compound Path&gt;" fill-rule="evenodd" class="s0" d="m3320 1538.6l-20.7-53h-66.8l-20.5 53h-19.6l65.9-167.3h16.3l65.5 167.3zm-26.8-70.5l-19.4-51.6c-2.5-6.5-5.1-14.5-7.7-24-1.7 7.3-4.1 15.3-7.2 24l-19.6 51.6zm60.6 70.5v-166.6h19.4v149.1h73.4v17.5zm112.1 0v-166.6h19.3v166.6zm129.8 0l-56.6-147.7h-0.8q1.5 17.6 1.5 41.7v106h-17.8v-166.6h29.1l52.8 137.4h0.9l53.2-137.4h28.9v166.6h-19.4v-107.3q0.1-18.5 1.6-40.1h-0.9l-56.9 147.4zm220.6 0h-92.8v-166.6h92.8v17.3h-73.4v53.6h69v17.1h-69v61.3h73.4zm158 0h-22.1l-91-139.7h-0.9c1.2 16.4 1.8 31.4 1.8 45v94.7h-17.9v-166.5h21.9l90.8 139.2h0.9c-0.2-2.1-0.5-8.7-1-19.8-0.6-11.1-0.8-19.1-0.6-23.9v-95.5h18.1zm88 0h-19.4v-149.3h-52.7v-17.3h124.8v17.3h-52.7zm208.7-83.5c0 26.7-6.8 47.7-20.3 62.9q-20.2 22.9-56.2 22.9-36.8 0-56.8-22.5-20-22.5-20-63.5c0-27.1 6.7-48.1 20.1-63q20-22.4 56.9-22.4c24 0 42.6 7.6 56.1 22.8q20.2 22.8 20.2 62.8zm-132.8 0q0 33.8 14.4 51.3 14.5 17.5 41.9 17.5 27.7 0 41.8-17.4 14.1-17.5 14.1-51.4c0-22.4-4.6-39.4-14-51q-14.1-17.3-41.7-17.3c-18.4 0-32.4 5.8-42.1 17.5q-14.4 17.4-14.4 50.8zm254.8 39.3q0 21.9-15.9 34.3c-10.7 8.1-25.1 12.2-43.3 12.2q-29.6 0-45.6-7.6v-18.7c6.9 2.9 14.3 5.1 22.3 6.8q12.1 2.5 24 2.5 19.3 0 29.1-7.3 9.8-7.3 9.8-20.4c0-5.8-1.1-10.5-3.4-14.2-2.4-3.7-6.2-7.1-11.6-10.2q-8.2-4.7-24.9-10.6-23.2-8.3-33.1-19.7-10-11.4-10-29.7 0-19.3 14.4-30.7 14.5-11.4 38.3-11.4 24.9 0 45.7 9.1l-6 16.9q-20.7-8.7-40.2-8.7c-10.2 0-18.2 2.2-24 6.6-5.8 4.4-8.6 10.5-8.6 18.4 0 5.8 1 10.5 3.1 14.2q3.2 5.5 10.8 10.1 7.6 4.6 23.2 10.2 26.2 9.3 36.1 20.1c6.5 7.1 9.8 16.4 9.8 27.8z"/>
			<g id="&lt;Group&gt;">
				<path id="&lt;Path&gt;" class="s0" d="m5133.1 1376.5h-73.2l83.6 157.6c-5.3 14.8-21.2 16.7-33.6 16.7-4.5 0-9.3-0.6-14.3-1.3l-4 32c10.6 2.6 21.4 3.4 32.3 3.4 43.9 0 70.6-17.5 83.8-50.5l62.7-157.9h-68.5l-27.8 82.7z"/>
				<path id="&lt;Path&gt;" class="s0" d="m5024.9 1423c7.7 0 15.9 1.9 23.6 3.7v-49.2c-15.6-3.7-30.2-3.9-46.6-3.9-46.5 0-82.5 32-82.5 73v93.1h67.7v-79.1c0-19.3 7.9-37.6 37.8-37.6z"/>
				<path id="&lt;Compound Path&gt;" fill-rule="evenodd" class="s0" d="m4902.6 1459.2l0.1 35.7c0 25.3-22.4 44.9-44.7 44.9h-48c-53.5 0-86.4-14.6-86.4-52.5 0-42.8 58.4-54.5 115.5-46l0.1-8c0.4-17.6-27.1-20.6-39-20.6-18.8 0-41.4 2.9-60.5 7.7v-37.6c23-6.8 46.8-8.7 71.4-8.7 58 0 91.7 28.8 91.5 85.1zm-87.8 8c-17 0-24.6 8.1-24.6 21 0 10.9 6.6 18.8 22.2 18.8 11.1 0 25.6-4.8 25.6-17.7v-19.5c-11.1-2.1-17.2-2.6-23.2-2.6z"/>
				<path id="&lt;Path&gt;" class="s0" d="m4707.7 1539.7v-198.4h-18.9c-62.9 0-90.2 64.2-116.1 121-25.9-56.8-53.5-121-116.1-121h-18.9v198.4h62.2v-107.1l51.8 107.1q21 0 42 0 25.9-53.6 51.8-107.1l-0.1 107.1z"/>
			</g>
		</g>
		<g id="&lt;Group&gt;">
			<g id="&lt;Group&gt;">
				<path id="&lt;Path&gt;" class="s0" d="m2762.2 1169.9h-18.1c-60.3 0-86.6 61.6-111.4 116.1-24.8-54.5-51.4-116.1-111.4-116.1h-18.1l109.3 190.3q20.2 0 40.4 0z"/>
				<path id="&lt;Path&gt;" class="s0" d="m2944.3 1424.6l-9.1-15.7c-30.2-52.3-96.6-44.2-156.2-38.4 34.8-48.8 74.8-102.6 44.8-154.6l-9-15.6-110.2 189.8q10.1 17.5 20.2 34.9z"/>
				<path id="&lt;Path&gt;" class="s0" d="m2814.7 1709.6l9.1-15.7c30.2-52.3-10.1-105.8-44.8-154.5 59.6 5.7 126.2 13.5 156.2-38.5l9.1-15.6-219.5-0.5q-10.1 17.5-20.2 34.9z"/>
				<path id="&lt;Path&gt;" class="s0" d="m2503.1 1739.9h18.2c60.3 0 86.5-61.6 111.4-116.1 24.8 54.5 51.3 116.1 111.4 116.1h18.1l-109.4-190.3q-20.1 0-40.3 0z"/>
				<path id="&lt;Path&gt;" class="s0" d="m2321.1 1485.2l9 15.7c30.2 52.3 96.7 44.2 156.3 38.4-34.8 48.8-74.9 102.6-44.9 154.6l9.1 15.6 110.1-189.8q-10.1-17.5-20.2-34.9z"/>
				<path id="&lt;Path&gt;" class="s0" d="m2450.6 1200.2l-9 15.7c-30.2 52.3 10 105.8 44.8 154.5-59.6-5.7-126.2-13.6-156.2 38.5l-9.1 15.6 219.5 0.5q10.1-17.5 20.1-35z"/>
			</g>
			<path id="&lt;Compound Path&gt;" fill-rule="evenodd" class="s0" d="m241.6 1538.6l-20.7-53h-66.8l-20.4 53h-19.6l65.8-167.3h16.3l65.5 167.3zm-26.7-70.5l-19.4-51.6c-2.5-6.5-5.1-14.5-7.8-24-1.6 7.3-4 15.3-7.2 24l-19.6 51.6zm60.7 70.5v-166.6h19.4v149.1h73.4v17.5zm112 0v-166.6h19.4v166.6zm129.7 0l-56.5-147.7h-0.9q1.6 17.6 1.6 41.7v106h-17.9v-166.6h29.2l52.7 137.4h0.9l53.2-137.4h29v166.6h-19.4v-107.3q0-18.5 1.6-40.1h-0.9l-57 147.4zm220.7 0h-92.8v-166.6h92.8v17.3h-73.5v53.6h69v17.1h-69v61.3h73.5zm157.9 0h-22l-91-139.7h-1c1.2 16.4 1.9 31.4 1.9 45v94.7h-17.9v-166.5h21.8l90.8 139.2h0.9c-0.1-2.1-0.4-8.7-1-19.8-0.5-11.1-0.7-19.1-0.6-23.9v-95.5h18.1zm88 0h-19.3v-149.3h-52.7v-17.3h124.7v17.3h-52.7zm208.7-83.5c0 26.7-6.8 47.7-20.2 62.9q-20.2 22.9-56.3 22.9-36.8 0-56.7-22.5-20-22.5-20-63.5c0-27.1 6.7-48.1 20-63q20.1-22.4 57-22.4c23.9 0 42.6 7.6 56 22.8q20.2 22.8 20.2 62.8zm-132.7 0q0 33.8 14.4 51.3 14.4 17.5 41.8 17.5 27.8 0 41.9-17.4 14.1-17.5 14.1-51.4c0-22.4-4.7-39.4-14.1-51q-14-17.3-41.6-17.3c-18.5 0-32.5 5.8-42.1 17.5q-14.4 17.4-14.4 50.8zm254.8 39.3q0 21.9-16 34.3c-10.6 8.1-25 12.2-43.3 12.2q-29.6 0-45.5-7.6v-18.7c6.8 2.9 14.2 5.1 22.3 6.8q12 2.5 23.9 2.5 19.4 0 29.2-7.3 9.8-7.3 9.8-20.4c0-5.8-1.2-10.5-3.5-14.2-2.3-3.7-6.2-7.1-11.6-10.2q-8.2-4.7-24.8-10.6-23.2-8.3-33.2-19.7-10-11.4-10-29.7 0-19.3 14.5-30.7 14.5-11.4 38.3-11.4 24.8 0 45.6 9.1l-6 16.9q-20.6-8.7-40.1-8.7c-10.2 0-18.3 2.2-24 6.6-5.8 4.4-8.7 10.5-8.7 18.4 0 5.8 1.1 10.5 3.2 14.2q3.2 5.5 10.8 10.1 7.5 4.6 23.2 10.2 26.1 9.3 36 20.1c6.6 7.1 9.9 16.4 9.9 27.8z"/>
			<g id="&lt;Group&gt;">
				<path id="&lt;Path&gt;" class="s0" d="m2054.8 1376.5h-73.3l83.6 157.6c-5.3 14.8-21.2 16.7-33.6 16.7-4.5 0-9.2-0.6-14.3-1.3l-3.9 32c10.5 2.6 21.4 3.4 32.2 3.4 43.9 0 70.6-17.5 83.9-50.5l62.7-157.9h-68.5l-27.8 82.7z"/>
				<path id="&lt;Path&gt;" class="s0" d="m1946.6 1423c7.6 0 15.9 1.9 23.5 3.7v-49.2c-15.6-3.7-30.1-3.9-46.5-3.9-46.6 0-82.5 32-82.5 73v93.1h67.7v-79.1c0-19.3 7.9-37.6 37.8-37.6z"/>
				<path id="&lt;Compound Path&gt;" fill-rule="evenodd" class="s0" d="m1824.3 1459.2l0.1 35.7c0 25.3-22.4 44.9-44.7 44.9h-48.1c-53.5 0-86.3-14.6-86.3-52.5 0-42.8 58.3-54.5 115.4-46l0.2-8c0.3-17.6-27.1-20.6-39-20.6-18.8 0-41.5 2.9-60.5 7.7v-37.6c23-6.8 46.8-8.7 71.4-8.7 57.9 0 91.7 28.8 91.5 85.1zm-87.9 8c-16.9 0-24.6 8.1-24.6 21 0 10.9 6.6 18.8 22.2 18.8 11.1 0 25.7-4.8 25.7-17.7v-19.5c-11.1-2.1-17.2-2.6-23.3-2.6z"/>
				<path id="&lt;Path&gt;" class="s0" d="m1629.4 1539.7v-198.4h-18.9c-62.9 0-90.3 64.2-116.1 121-25.9-56.8-53.6-121-116.2-121h-18.8v198.4h62.2v-107.1l51.7 107.1q21.1 0 42.1 0 25.9-53.6 51.7-107.1v107.1z"/>
			</g>
		</g>
		<g id="&lt;Group&gt;">
			<path id="&lt;Compound Path&gt;" class="s1" d="m115.3 2907.6q0.6 0.2 1.3 0.4 0.7 0.2 1.4 0.2 4.9 0 4.9-6.1v-28.2h4.8v28.4q0 2.4-0.4 4.3-0.5 1.9-1.6 3.3-1 1.4-2.6 2.2-1.6 0.7-3.7 0.7-1 0-2-0.1-1.1-0.2-2.1-0.3z"/>
			<path id="&lt;Compound Path&gt;" fill-rule="evenodd" class="s1" d="m133.5 2893.2q0-9.7 2.8-14.7 2.9-4.9 8.4-4.9 5.4 0 8.3 4.9 2.9 5 2.9 14.7 0 9.7-2.9 14.7-2.9 4.9-8.3 4.9-5.5 0-8.4-4.9-2.8-5-2.8-14.7zm4.8 0q0 8.2 1.6 11.9 1.5 3.8 4.8 3.8 3.3 0 4.8-3.8 1.5-3.7 1.5-11.9 0-8.2-1.5-11.9-1.5-3.8-4.8-3.8-3.3 0-4.8 3.8-1.6 3.7-1.6 11.9z"/>
			<path id="&lt;Compound Path&gt;" fill-rule="evenodd" class="s1" d="m160 2902.3q0-3.7 1.9-6.1 2-2.4 5.3-3.7-1.8-0.9-3-2-1.2-1.1-2-2.4-0.8-1.3-1.1-2.6-0.4-1.3-0.4-2.6 0-1.7 0.7-3.4 0.7-1.7 2-3 1.4-1.3 3.3-2.1 1.9-0.8 4.4-0.8 2.6 0 4.5 0.8 1.9 0.8 3.3 2.1 1.3 1.3 2 3 0.7 1.7 0.7 3.4 0 1.3-0.4 2.6-0.3 1.3-1.1 2.6-0.7 1.3-2 2.4-1.2 1.1-2.9 2 3.3 1.3 5.2 3.7 1.9 2.4 1.9 6.1 0 2.2-0.7 4.2-0.8 1.9-2.3 3.3-1.4 1.4-3.5 2.2-2.1 0.8-4.7 0.8-2.5 0-4.6-0.8-2.1-0.8-3.6-2.2-1.4-1.4-2.2-3.3-0.7-2-0.7-4.2zm4.8-0.6q0 1.5 0.4 2.8 0.5 1.3 1.4 2.2 0.9 1 2.1 1.6 1.2 0.6 2.8 0.6 2.6 0 4.3-2 1.7-1.9 1.7-4.8 0-2.7-1.5-4.5-1.5-1.8-5.2-3.5-1.8 1-3 1.9-1.1 0.9-1.8 1.8-0.7 1-0.9 1.9-0.3 1-0.3 2zm0.8-18.4q0 1.9 1.3 3.8 1.3 2 4.7 3.5 2.3-1.6 3.7-3.6 1.4-1.9 1.4-4.1 0-1-0.4-2-0.4-1-1.2-1.7-0.7-0.8-1.7-1.2-1-0.5-2.3-0.5-1.1 0-2.1 0.5-1.1 0.4-1.8 1.2-0.7 0.8-1.2 1.8-0.4 1-0.4 2.3z"/>
			<path id="&lt;Compound Path&gt;" class="s1" d="m188 2906.8q1.2 0.8 3.1 1.4 1.9 0.7 3.5 0.7 1.9 0 3.4-0.7 1.4-0.7 2.5-1.8 1-1.2 1.6-2.8 0.5-1.6 0.5-3.5 0-3.9-2.1-6-2.1-2.1-6-2.1-1.5 0-2.9 0.4-1.5 0.3-3.5 0.9v-19.4h17.7v4h-13v10.8q0.9-0.3 2.1-0.5 1.1-0.1 2.2-0.1 2.2 0 4.1 0.7 1.9 0.7 3.3 2.1 1.5 1.5 2.4 3.6 0.8 2.2 0.8 5 0 3-0.8 5.5-0.7 2.4-2.3 4.2-1.6 1.7-3.9 2.7-2.3 0.9-5.4 0.9-1.9 0-3.9-0.4-1.9-0.3-3.7-1.1z"/>
			<path id="&lt;Compound Path&gt;" fill-rule="evenodd" class="s1" d="m212.9 2893.2q0-9.7 2.9-14.7 2.8-4.9 8.3-4.9 5.5 0 8.3 4.9 2.9 5 2.9 14.7 0 9.7-2.9 14.7-2.8 4.9-8.3 4.9-5.5 0-8.3-4.9-2.9-5-2.9-14.7zm4.8 0q0 8.2 1.6 11.9 1.5 3.8 4.8 3.8 3.3 0 4.8-3.8 1.5-3.7 1.5-11.9 0-8.2-1.5-11.9-1.5-3.8-4.8-3.8-3.3 0-4.8 3.8-1.6 3.7-1.6 11.9z"/>
			<path id="&lt;Compound Path&gt;" class="s1" d="m239.8 2906.6q1.9 1.1 3.8 1.7 1.9 0.6 3.5 0.6 1.6 0 3-0.6 1.5-0.6 2.6-1.5 1.1-1 1.7-2.5 0.6-1.4 0.6-3.2 0-2.9-2-4.7-1.9-1.8-5.5-1.8h-3.6v-4h2q4.6 0 6.8-1.9 2.2-1.9 2.2-4.9 0-2.9-1.9-4.6-1.9-1.7-4.9-1.7-1.6 0-3.5 0.6-1.9 0.6-3.6 1.6l-0.4-4.5q1.9-0.9 4-1.3 2.2-0.3 4.4-0.3 2.3 0 4.2 0.5 2 0.6 3.5 1.8 1.4 1.2 2.2 3 0.9 1.8 0.9 4.2 0 4-2 6.2-2.1 2.2-5.1 2.8v0.2q1.7 0.2 3.1 1 1.4 0.8 2.3 2.1 1 1.3 1.5 2.9 0.5 1.6 0.5 3.4 0 2.3-0.8 4.3-0.7 2-2.3 3.5-1.6 1.6-3.9 2.4-2.4 0.9-5.5 0.9-2.1 0-4.4-0.4-2.2-0.4-3.8-1z"/>
			<path id="&lt;Compound Path&gt;" class="s1" d="m266.3 2906.6q1.9 1.1 3.8 1.7 1.9 0.6 3.5 0.6 1.6 0 3-0.6 1.4-0.6 2.5-1.5 1.1-1 1.8-2.5 0.6-1.4 0.6-3.2 0-2.9-2-4.7-2-1.8-5.5-1.8h-3.6v-4h2q4.5 0 6.8-1.9 2.2-1.9 2.2-4.9 0-2.9-1.9-4.6-1.9-1.7-4.9-1.7-1.6 0-3.5 0.6-2 0.6-3.6 1.6l-0.4-4.5q1.8-0.9 4-1.3 2.1-0.3 4.4-0.3 2.3 0 4.2 0.5 2 0.6 3.4 1.8 1.5 1.2 2.3 3 0.8 1.8 0.8 4.2 0 4-2 6.2-2 2.2-5.1 2.8v0.2q1.8 0.2 3.2 1 1.4 0.8 2.3 2.1 1 1.3 1.5 2.9 0.5 1.6 0.5 3.4 0 2.3-0.8 4.3-0.8 2-2.3 3.5-1.6 1.6-4 2.4-2.3 0.9-5.4 0.9-2.1 0-4.4-0.4-2.3-0.4-3.9-1z"/>
			<path id="&lt;Compound Path&gt;" class="s1" d="m292.3 2908.2q7.3-8.4 11-14.3 3.6-5.8 3.6-9.7 0-1.3-0.3-2.5-0.4-1.1-1.1-2-0.7-0.9-1.7-1.4-1.1-0.6-2.6-0.6-1.6 0-3.6 0.9-2.1 0.8-3.7 2.1l-0.7-4.8q2.5-1.2 4.9-1.8 2.4-0.5 4.2-0.5 2.2 0 4 0.7 1.8 0.8 3.1 2.1 1.2 1.3 1.9 3.1 0.7 1.8 0.7 3.8 0 2.5-1.1 5.5-1.1 3.1-3 6.3-1.9 3.3-4.5 6.7-2.6 3.3-5.7 6.4h14.9v4.2h-20.3z"/>
			<path id="&lt;Compound Path&gt;" fill-rule="evenodd" class="s1" d="m318.8 2902.3q0-3.7 1.9-6.1 2-2.4 5.3-3.7-1.8-0.9-3-2-1.2-1.1-2-2.4-0.7-1.3-1.1-2.6-0.3-1.3-0.3-2.6 0-1.7 0.6-3.4 0.7-1.7 2.1-3 1.3-1.3 3.2-2.1 1.9-0.8 4.5-0.8 2.5 0 4.4 0.8 2 0.8 3.3 2.1 1.3 1.3 2 3 0.7 1.7 0.7 3.4 0 1.3-0.4 2.6-0.3 1.3-1.1 2.6-0.7 1.3-1.9 2.4-1.3 1.1-3 2 3.3 1.3 5.2 3.7 2 2.4 2 6.1 0 2.2-0.8 4.2-0.8 1.9-2.2 3.3-1.5 1.4-3.6 2.2-2 0.8-4.6 0.8-2.6 0-4.7-0.8-2.1-0.8-3.5-2.2-1.5-1.4-2.2-3.3-0.8-2-0.8-4.2zm4.8-0.6q0 1.5 0.5 2.8 0.4 1.3 1.3 2.2 0.9 1 2.1 1.6 1.2 0.6 2.8 0.6 2.7 0 4.3-2 1.7-1.9 1.7-4.8 0-2.7-1.5-4.5-1.5-1.8-5.2-3.5-1.8 1-2.9 1.9-1.2 0.9-1.9 1.8-0.7 1-0.9 1.9-0.3 1-0.3 2zm0.8-18.4q0 1.9 1.3 3.8 1.3 2 4.7 3.5 2.3-1.6 3.7-3.6 1.4-1.9 1.4-4.1 0-1-0.4-2-0.4-1-1.1-1.7-0.8-0.8-1.8-1.2-1-0.5-2.2-0.5-1.2 0-2.2 0.5-1 0.4-1.8 1.2-0.7 0.8-1.2 1.8-0.4 1-0.4 2.3z"/>
			<path id="&lt;Compound Path&gt;" fill-rule="evenodd" class="s1" d="m347.2 2907.2q1.3 0.8 2.8 1.2 1.5 0.5 3.1 0.5 2.4 0 4.2-1.2 1.9-1.1 3.1-3.1 1.3-2 2-4.8 0.6-2.8 0.6-6.2h-0.1q-1 2.2-3 3.5-2 1.2-4.6 1.2-2.4 0-4.3-1-1.9-1-3.2-2.7-1.2-1.7-1.9-3.9-0.6-2.1-0.6-4.4 0-3.2 0.8-5.6 0.9-2.3 2.4-3.9 1.4-1.6 3.5-2.4 2-0.8 4.3-0.8 3.1 0 5.3 1.2 2.1 1.3 3.5 3.6 1.3 2.4 1.9 5.7 0.6 3.4 0.6 7.5 0 21.2-14.2 21.2-1.8 0-3.5-0.3-1.7-0.3-2.9-0.8zm2.9-21.2q0 1.5 0.4 3 0.4 1.5 1.1 2.7 0.7 1.2 1.9 1.9 1.1 0.8 2.7 0.8 1.5 0 2.7-0.8 1.1-0.7 1.9-1.9 0.7-1.2 1.1-2.7 0.4-1.5 0.4-3 0-1.6-0.4-3.1-0.4-1.5-1.1-2.7-0.8-1.2-1.9-1.9-1.2-0.8-2.7-0.8-1.6 0-2.7 0.8-1.2 0.7-1.9 1.9-0.7 1.2-1.1 2.7-0.4 1.5-0.4 3.1z"/>
		</g>
		<g id="&lt;Group&gt;">
			<g id="&lt;Group&gt;">
				<path id="&lt;Path&gt;" class="s0" d="m5840.6 2450.8h-18.1c-60.4 0-86.6 61.6-111.4 116.1-24.9-54.5-51.4-116.1-111.5-116.1h-18.1l109.4 190.3q20.2 0 40.3 0z"/>
				<path id="&lt;Path&gt;" class="s0" d="m6022.6 2705.5l-9-15.6c-30.2-52.3-96.7-44.2-156.3-38.5 34.8-48.7 74.9-102.5 44.9-154.5l-9.1-15.7-110.1 189.8q10.1 17.5 20.2 35z"/>
				<path id="&lt;Path&gt;" class="s0" d="m5893.1 2990.5l9-15.6c30.2-52.3-10-105.8-44.8-154.6 59.6 5.8 126.2 13.6 156.2-38.4l9.1-15.7-219.5-0.4q-10 17.4-20.1 34.9z"/>
				<path id="&lt;Path&gt;" class="s0" d="m5581.5 3020.9h18.1c60.4 0 86.6-61.6 111.4-116.1 24.8 54.5 51.4 116.1 111.4 116.1h18.1l-109.3-190.3q-20.2 0-40.4 0z"/>
				<path id="&lt;Path&gt;" class="s0" d="m5399.4 2766.2l9.1 15.7c30.2 52.2 96.6 44.1 156.2 38.4-34.8 48.8-74.8 102.5-44.8 154.5l9.1 15.7 110.1-189.8q-10.1-17.5-20.2-35z"/>
				<path id="&lt;Path&gt;" class="s0" d="m5529 2481.2l-9.1 15.7c-30.2 52.2 10.1 105.7 44.9 154.5-59.7-5.8-126.3-13.6-156.3 38.4l-9 15.7 219.4 0.4q10.1-17.4 20.2-34.9z"/>
			</g>
			<path id="&lt;Compound Path&gt;" fill-rule="evenodd" class="s0" d="m3320 2819.5l-20.7-52.9h-66.8l-20.5 52.9h-19.6l65.9-167.2h16.3l65.5 167.2zm-26.8-70.4l-19.4-51.6c-2.5-6.5-5.1-14.5-7.7-24-1.7 7.3-4.1 15.3-7.2 24l-19.6 51.6zm60.6 70.4v-166.5h19.4v149h73.4v17.5zm112.1 0v-166.5h19.3v166.5zm129.8 0l-56.6-147.6h-0.8q1.5 17.5 1.5 41.7v105.9h-17.8v-166.5h29.1l52.8 137.4h0.9l53.2-137.4h28.9v166.5h-19.4v-107.3q0.1-18.4 1.6-40.1h-0.9l-56.9 147.4zm220.6 0h-92.8v-166.5h92.8v17.3h-73.4v53.6h69v17h-69v61.4h73.4zm158 0h-22.1l-91-139.8h-0.9c1.2 16.4 1.8 31.4 1.8 45.1v94.7h-17.9v-166.6h21.9l90.8 139.2h0.9c-0.2-2-0.5-8.6-1-19.8-0.6-11.1-0.8-19-0.6-23.8v-95.6h18.1zm88 0h-19.4v-149.2h-52.7v-17.3h124.8v17.3h-52.7zm208.7-83.5c0 26.7-6.8 47.6-20.3 62.9q-20.2 22.9-56.2 22.9-36.8 0-56.8-22.5-20-22.5-20-63.5c0-27.1 6.7-48.1 20.1-63q20-22.4 56.9-22.4c24 0 42.6 7.5 56.1 22.7q20.2 22.8 20.2 62.9zm-132.8 0q0 33.8 14.4 51.3 14.5 17.5 41.9 17.5 27.7 0 41.8-17.4 14.1-17.5 14.1-51.4c0-22.4-4.6-39.4-14-51q-14.1-17.4-41.7-17.4c-18.4 0-32.4 5.9-42.1 17.5q-14.4 17.5-14.4 50.9zm254.8 39.2q0 22-15.9 34.3c-10.7 8.2-25.1 12.3-43.3 12.3q-29.6 0-45.6-7.7v-18.7c6.9 2.9 14.3 5.2 22.3 6.9q12.1 2.5 24 2.5 19.3 0 29.1-7.4 9.8-7.3 9.8-20.4c0-5.7-1.1-10.5-3.4-14.1-2.4-3.7-6.2-7.1-11.6-10.3q-8.2-4.6-24.9-10.5-23.2-8.4-33.1-19.7-10-11.4-10-29.8 0-19.2 14.4-30.6 14.5-11.4 38.3-11.4 24.9 0 45.7 9.1l-6 16.8q-20.7-8.6-40.2-8.6c-10.2 0-18.2 2.2-24 6.6-5.8 4.4-8.6 10.5-8.6 18.4 0 5.7 1 10.4 3.1 14.1q3.2 5.6 10.8 10.2 7.6 4.6 23.2 10.2 26.2 9.3 36.1 20c6.5 7.1 9.8 16.4 9.8 27.8z"/>
			<g id="&lt;Group&gt;">
				<path id="&lt;Path&gt;" class="s0" d="m5133.1 2657.5h-73.2l83.6 157.6c-5.3 14.8-21.2 16.6-33.6 16.6-4.5 0-9.3-0.5-14.3-1.3l-4 32c10.6 2.7 21.4 3.5 32.3 3.5 43.9 0 70.6-17.5 83.8-50.6l62.7-157.8h-68.5l-27.8 82.6z"/>
				<path id="&lt;Path&gt;" class="s0" d="m5024.9 2704c7.7 0 15.9 1.8 23.6 3.7v-49.2c-15.6-3.7-30.2-4-46.6-4-46.5 0-82.5 32-82.5 73v93.1h67.7v-79c0-19.4 7.9-37.6 37.8-37.6z"/>
				<path id="&lt;Compound Path&gt;" fill-rule="evenodd" class="s0" d="m4902.6 2740.2l0.1 35.7c0 25.3-22.4 44.9-44.7 44.9h-48c-53.5 0-86.4-14.6-86.4-52.5 0-42.9 58.4-54.5 115.5-46.1l0.1-7.9c0.4-17.7-27.1-20.6-39-20.6-18.8 0-41.4 2.9-60.5 7.6v-37.5c23-6.9 46.8-8.7 71.4-8.7 58 0 91.7 28.8 91.5 85.1zm-87.8 8c-17 0-24.6 8.1-24.6 21 0 10.9 6.6 18.8 22.2 18.8 11.1 0 25.6-4.8 25.6-17.7v-19.5c-11.1-2.1-17.2-2.6-23.2-2.6z"/>
				<path id="&lt;Path&gt;" class="s0" d="m4707.7 2820.6v-198.3h-18.9c-62.9 0-90.2 64.2-116.1 121-25.9-56.8-53.5-121-116.1-121h-18.9v198.3h62.2v-107.1l51.8 107.1q21 0 42 0 25.9-53.5 51.8-107.1l-0.1 107.1z"/>
			</g>
		</g>
		<g id="&lt;Group&gt;">
			<path id="&lt;Compound Path&gt;" class="s0" d="m3193.7 2907.6q0.6 0.2 1.3 0.4 0.7 0.2 1.4 0.2 4.8 0 4.8-6.1v-28.2h4.9v28.4q0 2.4-0.5 4.3-0.5 1.9-1.5 3.3-1 1.4-2.6 2.2-1.6 0.7-3.8 0.7-0.9 0-2-0.1-1.1-0.2-2-0.3z"/>
			<path id="&lt;Compound Path&gt;" fill-rule="evenodd" class="s0" d="m3211.8 2893.2q0-9.7 2.9-14.7 2.9-4.9 8.3-4.9 5.5 0 8.4 4.9 2.8 5 2.8 14.7 0 9.7-2.8 14.7-2.9 4.9-8.4 4.9-5.4 0-8.3-4.9-2.9-5-2.9-14.7zm4.9 0q0 8.2 1.5 11.9 1.5 3.8 4.8 3.8 3.3 0 4.9-3.8 1.5-3.7 1.5-11.9 0-8.2-1.5-11.9-1.6-3.8-4.9-3.8-3.3 0-4.8 3.8-1.5 3.7-1.5 11.9z"/>
			<path id="&lt;Compound Path&gt;" fill-rule="evenodd" class="s0" d="m3238.3 2902.3q0-3.7 2-6.1 1.9-2.4 5.2-3.7-1.7-0.9-3-2-1.2-1.1-1.9-2.4-0.8-1.3-1.2-2.6-0.3-1.3-0.3-2.6 0-1.7 0.7-3.4 0.7-1.7 2-3 1.3-1.3 3.2-2.1 2-0.8 4.5-0.8 2.5 0 4.5 0.8 1.9 0.8 3.2 2.1 1.3 1.3 2 3 0.7 1.7 0.7 3.4 0 1.3-0.3 2.6-0.4 1.3-1.1 2.6-0.8 1.3-2 2.4-1.3 1.1-3 2 3.3 1.3 5.3 3.7 1.9 2.4 1.9 6.1 0 2.2-0.8 4.2-0.8 1.9-2.2 3.3-1.5 1.4-3.5 2.2-2.1 0.8-4.7 0.8-2.6 0-4.7-0.8-2.1-0.8-3.5-2.2-1.5-1.4-2.2-3.3-0.8-2-0.8-4.2zm4.9-0.6q0 1.5 0.4 2.8 0.4 1.3 1.3 2.2 0.9 1 2.1 1.6 1.2 0.6 2.8 0.6 2.7 0 4.4-2 1.6-1.9 1.6-4.8 0-2.7-1.5-4.5-1.5-1.8-5.1-3.5-1.9 1-3 1.9-1.2 0.9-1.9 1.8-0.6 1-0.9 1.9-0.2 1-0.2 2zm0.7-18.4q0 1.9 1.3 3.8 1.3 2 4.7 3.5 2.4-1.6 3.8-3.6 1.4-1.9 1.4-4.1 0-1-0.4-2-0.5-1-1.2-1.7-0.7-0.8-1.8-1.2-1-0.5-2.2-0.5-1.2 0-2.2 0.5-1 0.4-1.7 1.2-0.8 0.8-1.2 1.8-0.5 1-0.5 2.3z"/>
			<path id="&lt;Compound Path&gt;" class="s0" d="m3266.3 2906.8q1.3 0.8 3.2 1.4 1.8 0.7 3.5 0.7 1.8 0 3.3-0.7 1.5-0.7 2.5-1.8 1.1-1.2 1.6-2.8 0.6-1.6 0.6-3.5 0-3.9-2.1-6-2.2-2.1-6.1-2.1-1.4 0-2.9 0.4-1.4 0.3-3.4 0.9v-19.4h17.7v4h-13.1v10.8q1-0.3 2.1-0.5 1.2-0.1 2.3-0.1 2.1 0 4 0.7 1.9 0.7 3.4 2.1 1.5 1.5 2.3 3.6 0.9 2.2 0.9 5 0 3-0.8 5.5-0.8 2.4-2.4 4.2-1.5 1.7-3.8 2.7-2.4 0.9-5.4 0.9-1.9 0-3.9-0.4-2-0.3-3.7-1.1z"/>
			<path id="&lt;Compound Path&gt;" fill-rule="evenodd" class="s0" d="m3291.2 2893.2q0-9.7 2.9-14.7 2.9-4.9 8.3-4.9 5.5 0 8.4 4.9 2.8 5 2.8 14.7 0 9.7-2.8 14.7-2.9 4.9-8.4 4.9-5.4 0-8.3-4.9-2.9-5-2.9-14.7zm4.9 0q0 8.2 1.5 11.9 1.5 3.8 4.8 3.8 3.4 0 4.9-3.8 1.5-3.7 1.5-11.9 0-8.2-1.5-11.9-1.5-3.8-4.9-3.8-3.3 0-4.8 3.8-1.5 3.7-1.5 11.9z"/>
			<path id="&lt;Compound Path&gt;" class="s0" d="m3318.2 2906.6q1.9 1.1 3.8 1.7 1.9 0.6 3.5 0.6 1.5 0 3-0.6 1.4-0.6 2.5-1.5 1.1-1 1.7-2.5 0.7-1.4 0.7-3.2 0-2.9-2-4.7-2-1.8-5.5-1.8h-3.6v-4h2q4.5 0 6.7-1.9 2.3-1.9 2.3-4.9 0-2.9-1.9-4.6-1.9-1.7-5-1.7-1.5 0-3.4 0.6-2 0.6-3.6 1.6l-0.5-4.5q1.9-0.9 4.1-1.3 2.1-0.3 4.4-0.3 2.2 0 4.2 0.5 1.9 0.6 3.4 1.8 1.5 1.2 2.3 3 0.8 1.8 0.8 4.2 0 4-2 6.2-2 2.2-5.1 2.8v0.2q1.8 0.2 3.2 1 1.3 0.8 2.3 2.1 1 1.3 1.5 2.9 0.5 1.6 0.5 3.4 0 2.3-0.8 4.3-0.8 2-2.4 3.5-1.5 1.6-3.9 2.4-2.3 0.9-5.5 0.9-2.1 0-4.3-0.4-2.3-0.4-3.9-1z"/>
			<path id="&lt;Compound Path&gt;" class="s0" d="m3344.6 2906.6q2 1.1 3.9 1.7 1.9 0.6 3.5 0.6 1.5 0 2.9-0.6 1.5-0.6 2.6-1.5 1.1-1 1.7-2.5 0.7-1.4 0.7-3.2 0-2.9-2-4.7-2-1.8-5.5-1.8h-3.6v-4h2q4.5 0 6.7-1.9 2.2-1.9 2.2-4.9 0-2.9-1.9-4.6-1.9-1.7-4.9-1.7-1.5 0-3.5 0.6-1.9 0.6-3.6 1.6l-0.4-4.5q1.9-0.9 4-1.3 2.2-0.3 4.4-0.3 2.3 0 4.3 0.5 1.9 0.6 3.4 1.8 1.4 1.2 2.3 3 0.8 1.8 0.8 4.2 0 4-2 6.2-2 2.2-5.1 2.8v0.2q1.7 0.2 3.1 1 1.4 0.8 2.4 2.1 0.9 1.3 1.4 2.9 0.5 1.6 0.5 3.4 0 2.3-0.7 4.3-0.8 2-2.4 3.5-1.6 1.6-3.9 2.4-2.4 0.9-5.5 0.9-2.1 0-4.4-0.4-2.2-0.4-3.8-1z"/>
			<path id="&lt;Compound Path&gt;" class="s0" d="m3370.7 2908.2q7.3-8.4 10.9-14.3 3.7-5.8 3.7-9.7 0-1.3-0.4-2.5-0.3-1.1-1-2-0.7-0.9-1.8-1.4-1.1-0.6-2.5-0.6-1.7 0-3.7 0.9-2 0.8-3.7 2.1l-0.6-4.8q2.5-1.2 4.9-1.8 2.4-0.5 4.1-0.5 2.2 0 4.1 0.7 1.8 0.8 3 2.1 1.3 1.3 2 3.1 0.6 1.8 0.6 3.8 0 2.5-1 5.5-1.1 3.1-3 6.3-1.9 3.3-4.5 6.7-2.6 3.3-5.8 6.4h14.9v4.2h-20.2z"/>
			<path id="&lt;Compound Path&gt;" fill-rule="evenodd" class="s0" d="m3397.1 2902.3q0-3.7 2-6.1 1.9-2.4 5.3-3.7-1.8-0.9-3-2-1.2-1.1-2-2.4-0.8-1.3-1.1-2.6-0.4-1.3-0.4-2.6 0-1.7 0.7-3.4 0.7-1.7 2-3 1.3-1.3 3.3-2.1 1.9-0.8 4.4-0.8 2.6 0 4.5 0.8 1.9 0.8 3.2 2.1 1.4 1.3 2.1 3 0.7 1.7 0.7 3.4 0 1.3-0.4 2.6-0.4 1.3-1.1 2.6-0.8 1.3-2 2.4-1.2 1.1-2.9 2 3.3 1.3 5.2 3.7 1.9 2.4 1.9 6.1 0 2.2-0.7 4.2-0.8 1.9-2.3 3.3-1.4 1.4-3.5 2.2-2.1 0.8-4.7 0.8-2.6 0-4.7-0.8-2.1-0.8-3.5-2.2-1.4-1.4-2.2-3.3-0.8-2-0.8-4.2zm4.9-0.6q0 1.5 0.4 2.8 0.5 1.3 1.4 2.2 0.8 1 2 1.6 1.3 0.6 2.9 0.6 2.6 0 4.3-2 1.7-1.9 1.7-4.8 0-2.7-1.5-4.5-1.6-1.8-5.2-3.5-1.8 1-3 1.9-1.1 0.9-1.8 1.8-0.7 1-1 1.9-0.2 1-0.2 2zm0.8-18.4q0 1.9 1.3 3.8 1.2 2 4.7 3.5 2.3-1.6 3.7-3.6 1.4-1.9 1.4-4.1 0-1-0.4-2-0.4-1-1.2-1.7-0.7-0.8-1.7-1.2-1.1-0.5-2.3-0.5-1.1 0-2.2 0.5-1 0.4-1.7 1.2-0.8 0.8-1.2 1.8-0.4 1-0.4 2.3z"/>
			<path id="&lt;Compound Path&gt;" fill-rule="evenodd" class="s0" d="m3425.5 2907.2q1.3 0.8 2.8 1.2 1.5 0.5 3.1 0.5 2.4 0 4.3-1.2 1.9-1.1 3.1-3.1 1.2-2 1.9-4.8 0.7-2.8 0.7-6.2h-0.1q-1 2.2-3 3.5-2 1.2-4.7 1.2-2.4 0-4.3-1-1.8-1-3.1-2.7-1.3-1.7-1.9-3.9-0.7-2.1-0.7-4.4 0-3.2 0.9-5.6 0.8-2.3 2.3-3.9 1.5-1.6 3.5-2.4 2.1-0.8 4.4-0.8 3.1 0 5.2 1.2 2.2 1.3 3.5 3.6 1.4 2.4 2 5.7 0.6 3.4 0.6 7.5 0 21.2-14.3 21.2-1.8 0-3.4-0.3-1.7-0.3-3-0.8zm2.9-21.2q0 1.5 0.4 3 0.4 1.5 1.2 2.7 0.7 1.2 1.8 1.9 1.2 0.8 2.7 0.8 1.5 0 2.7-0.8 1.2-0.7 1.9-1.9 0.8-1.2 1.1-2.7 0.4-1.5 0.4-3 0-1.6-0.4-3.1-0.3-1.5-1.1-2.7-0.7-1.2-1.9-1.9-1.2-0.8-2.7-0.8-1.5 0-2.7 0.8-1.1 0.7-1.8 1.9-0.8 1.2-1.2 2.7-0.4 1.5-0.4 3.1z"/>
		</g>
		<g id="&lt;Group&gt;">
			<g id="&lt;Group&gt;">
				<path id="&lt;Path&gt;" class="s2" d="m8918.9 2450.8h-18.1c-60.3 0-86.6 61.6-111.4 116.1-24.8-54.5-51.4-116.1-111.4-116.1h-18.1l109.3 190.3q20.2 0 40.4 0z"/>
				<path id="&lt;Path&gt;" class="s2" d="m9101 2705.5l-9.1-15.6c-30.2-52.3-96.6-44.2-156.2-38.5 34.8-48.7 74.8-102.5 44.8-154.5l-9-15.7-110.2 189.8q10.1 17.5 20.2 35z"/>
				<path id="&lt;Path&gt;" class="s2" d="m8971.4 2990.5l9.1-15.6c30.2-52.3-10.1-105.8-44.8-154.6 59.6 5.8 126.2 13.6 156.2-38.4l9-15.7-219.4-0.4q-10.1 17.4-20.2 34.9z"/>
				<path id="&lt;Path&gt;" class="s2" d="m8659.8 3020.9h18.2c60.3 0 86.5-61.6 111.4-116.1 24.8 54.5 51.3 116.1 111.4 116.1h18.1l-109.4-190.3q-20.1 0-40.3 0z"/>
				<path id="&lt;Path&gt;" class="s2" d="m8477.8 2766.2l9 15.7c30.2 52.2 96.7 44.1 156.3 38.4-34.8 48.8-74.9 102.5-44.9 154.5l9.1 15.7 110.1-189.8q-10.1-17.5-20.2-35z"/>
				<path id="&lt;Path&gt;" class="s2" d="m8607.3 2481.2l-9 15.7c-30.2 52.2 10 105.7 44.8 154.5-59.6-5.8-126.2-13.6-156.2 38.4l-9.1 15.7 219.5 0.4q10.1-17.4 20.1-34.9z"/>
			</g>
			<path id="&lt;Compound Path&gt;" fill-rule="evenodd" class="s2" d="m6398.3 2819.5l-20.7-52.9h-66.8l-20.4 52.9h-19.6l65.8-167.2h16.3l65.5 167.2zm-26.7-70.4l-19.4-51.6c-2.5-6.5-5.1-14.5-7.8-24-1.6 7.3-4 15.3-7.2 24l-19.6 51.6zm60.7 70.4v-166.5h19.4v149h73.4v17.5zm112 0v-166.5h19.4v166.5zm129.7 0l-56.5-147.6h-0.9q1.6 17.5 1.6 41.7v105.9h-17.9v-166.5h29.2l52.7 137.4h0.9l53.2-137.4h29v166.5h-19.4v-107.3q0-18.4 1.6-40.1h-0.9l-57 147.4zm220.7 0h-92.8v-166.5h92.8v17.3h-73.5v53.6h69v17h-69v61.4h73.5zm157.9 0h-22l-91-139.8h-1c1.2 16.4 1.9 31.4 1.9 45.1v94.7h-17.9v-166.6h21.8l90.8 139.2h0.9c-0.1-2-0.4-8.6-1-19.8-0.5-11.1-0.7-19-0.6-23.8v-95.6h18.1zm88 0h-19.3v-149.2h-52.7v-17.3h124.7v17.3h-52.7zm208.7-83.5c0 26.7-6.8 47.6-20.2 62.9q-20.2 22.9-56.3 22.9-36.8 0-56.7-22.5-20-22.5-20-63.5c0-27.1 6.7-48.1 20-63q20.1-22.4 57-22.4c23.9 0 42.6 7.5 56 22.7q20.2 22.8 20.2 62.9zm-132.7 0q0 33.8 14.4 51.3 14.4 17.5 41.8 17.5 27.8 0 41.9-17.4 14.1-17.5 14.1-51.4c0-22.4-4.7-39.4-14.1-51q-14-17.4-41.6-17.4c-18.5 0-32.5 5.9-42.1 17.5q-14.4 17.5-14.4 50.9zm254.8 39.2q0 22-16 34.3c-10.6 8.2-25 12.3-43.3 12.3q-29.6 0-45.5-7.7v-18.7c6.8 2.9 14.2 5.2 22.3 6.9q12 2.5 23.9 2.5 19.4 0 29.2-7.4 9.8-7.3 9.8-20.4c0-5.7-1.2-10.5-3.5-14.1-2.3-3.7-6.2-7.1-11.6-10.3q-8.2-4.6-24.8-10.5-23.2-8.4-33.2-19.7-10-11.4-10-29.8 0-19.2 14.5-30.6 14.5-11.4 38.3-11.4 24.8 0 45.6 9.1l-6 16.8q-20.6-8.6-40.1-8.6c-10.2 0-18.3 2.2-24 6.6-5.8 4.4-8.7 10.5-8.7 18.4 0 5.7 1.1 10.4 3.2 14.1q3.2 5.6 10.8 10.2 7.5 4.6 23.2 10.2 26.1 9.3 36 20c6.6 7.1 9.9 16.4 9.9 27.8z"/>
			<g id="&lt;Group&gt;">
				<path id="&lt;Path&gt;" class="s2" d="m8211.5 2657.5h-73.3l83.6 157.6c-5.3 14.8-21.2 16.6-33.6 16.6-4.5 0-9.2-0.5-14.3-1.3l-3.9 32c10.5 2.7 21.4 3.5 32.2 3.5 43.9 0 70.6-17.5 83.9-50.6l62.7-157.8h-68.5l-27.8 82.6z"/>
				<path id="&lt;Path&gt;" class="s2" d="m8103.3 2704c7.6 0 15.8 1.8 23.5 3.7v-49.2c-15.6-3.7-30.1-4-46.5-4-46.6 0-82.5 32-82.5 73v93.1h67.7v-79c0-19.4 7.9-37.6 37.8-37.6z"/>
				<path id="&lt;Compound Path&gt;" fill-rule="evenodd" class="s2" d="m7981 2740.2l0.1 35.7c0 25.3-22.4 44.9-44.7 44.9h-48.1c-53.5 0-86.3-14.6-86.3-52.5 0-42.9 58.3-54.5 115.4-46.1l0.2-7.9c0.3-17.7-27.1-20.6-39-20.6-18.8 0-41.5 2.9-60.5 7.6v-37.5c23-6.9 46.8-8.7 71.4-8.7 57.9 0 91.7 28.8 91.5 85.1zm-87.9 8c-16.9 0-24.6 8.1-24.6 21 0 10.9 6.6 18.8 22.2 18.8 11.1 0 25.7-4.8 25.7-17.7v-19.5c-11.1-2.1-17.2-2.6-23.3-2.6z"/>
				<path id="&lt;Path&gt;" class="s2" d="m7786.1 2820.6v-198.3h-18.9c-62.9 0-90.3 64.2-116.1 121-25.9-56.8-53.6-121-116.2-121h-18.9v198.3h62.3v-107.1l51.7 107.1q21.1 0 42.1 0 25.9-53.5 51.7-107.1v107.1z"/>
			</g>
		</g>
		<g id="&lt;Group&gt;">
			<path id="&lt;Compound Path&gt;" class="s2" d="m6272 2907.6q0.6 0.2 1.3 0.4 0.7 0.2 1.4 0.2 4.9 0 4.9-6.1v-28.2h4.8v28.4q0 2.4-0.5 4.3-0.4 1.9-1.5 3.3-1 1.4-2.6 2.2-1.6 0.7-3.7 0.7-1 0-2-0.1-1.1-0.2-2.1-0.3z"/>
			<path id="&lt;Compound Path&gt;" fill-rule="evenodd" class="s2" d="m6290.2 2893.2q0-9.7 2.8-14.7 2.9-4.9 8.4-4.9 5.4 0 8.3 4.9 2.9 5 2.9 14.7 0 9.7-2.9 14.7-2.9 4.9-8.3 4.9-5.5 0-8.4-4.9-2.8-5-2.8-14.7zm4.8 0q0 8.2 1.6 11.9 1.5 3.8 4.8 3.8 3.3 0 4.8-3.8 1.5-3.7 1.5-11.9 0-8.2-1.5-11.9-1.5-3.8-4.8-3.8-3.3 0-4.8 3.8-1.6 3.7-1.6 11.9z"/>
			<path id="&lt;Compound Path&gt;" fill-rule="evenodd" class="s2" d="m6316.7 2902.3q0-3.7 1.9-6.1 2-2.4 5.3-3.7-1.8-0.9-3-2-1.2-1.1-2-2.4-0.8-1.3-1.1-2.6-0.4-1.3-0.4-2.6 0-1.7 0.7-3.4 0.7-1.7 2-3 1.4-1.3 3.3-2.1 1.9-0.8 4.4-0.8 2.6 0 4.5 0.8 1.9 0.8 3.3 2.1 1.3 1.3 2 3 0.7 1.7 0.7 3.4 0 1.3-0.4 2.6-0.3 1.3-1.1 2.6-0.7 1.3-2 2.4-1.2 1.1-2.9 2 3.3 1.3 5.2 3.7 1.9 2.4 1.9 6.1 0 2.2-0.7 4.2-0.8 1.9-2.3 3.3-1.4 1.4-3.5 2.2-2.1 0.8-4.7 0.8-2.5 0-4.6-0.8-2.1-0.8-3.6-2.2-1.4-1.4-2.2-3.3-0.7-2-0.7-4.2zm4.8-0.6q0 1.5 0.4 2.8 0.5 1.3 1.4 2.2 0.9 1 2.1 1.6 1.2 0.6 2.8 0.6 2.6 0 4.3-2 1.7-1.9 1.7-4.8 0-2.7-1.5-4.5-1.5-1.8-5.2-3.5-1.8 1-3 1.9-1.1 0.9-1.8 1.8-0.7 1-0.9 1.9-0.3 1-0.3 2zm0.8-18.4q0 1.9 1.3 3.8 1.3 2 4.7 3.5 2.3-1.6 3.7-3.6 1.4-1.9 1.4-4.1 0-1-0.4-2-0.4-1-1.2-1.7-0.7-0.8-1.7-1.2-1-0.5-2.3-0.5-1.1 0-2.1 0.5-1.1 0.4-1.8 1.2-0.7 0.8-1.2 1.8-0.4 1-0.4 2.3z"/>
			<path id="&lt;Compound Path&gt;" class="s2" d="m6344.7 2906.8q1.2 0.8 3.1 1.4 1.9 0.7 3.5 0.7 1.9 0 3.4-0.7 1.4-0.7 2.5-1.8 1-1.2 1.6-2.8 0.5-1.6 0.5-3.5 0-3.9-2.1-6-2.1-2.1-6-2.1-1.5 0-2.9 0.4-1.5 0.3-3.5 0.9v-19.4h17.7v4h-13v10.8q0.9-0.3 2.1-0.5 1.1-0.1 2.2-0.1 2.2 0 4.1 0.7 1.9 0.7 3.3 2.1 1.5 1.5 2.4 3.6 0.8 2.2 0.8 5 0 3-0.8 5.5-0.7 2.4-2.3 4.2-1.6 1.7-3.9 2.7-2.3 0.9-5.4 0.9-1.9 0-3.9-0.4-1.9-0.3-3.7-1.1z"/>
			<path id="&lt;Compound Path&gt;" fill-rule="evenodd" class="s2" d="m6369.6 2893.2q0-9.7 2.9-14.7 2.8-4.9 8.3-4.9 5.5 0 8.3 4.9 2.9 5 2.9 14.7 0 9.7-2.9 14.7-2.8 4.9-8.3 4.9-5.5 0-8.3-4.9-2.9-5-2.9-14.7zm4.8 0q0 8.2 1.6 11.9 1.5 3.8 4.8 3.8 3.3 0 4.8-3.8 1.5-3.7 1.5-11.9 0-8.2-1.5-11.9-1.5-3.8-4.8-3.8-3.3 0-4.8 3.8-1.6 3.7-1.6 11.9z"/>
			<path id="&lt;Compound Path&gt;" class="s2" d="m6396.5 2906.6q1.9 1.1 3.8 1.7 1.9 0.6 3.5 0.6 1.6 0 3-0.6 1.5-0.6 2.6-1.5 1.1-1 1.7-2.5 0.6-1.4 0.6-3.2 0-2.9-2-4.7-1.9-1.8-5.5-1.8h-3.6v-4h2q4.6 0 6.8-1.9 2.2-1.9 2.2-4.9 0-2.9-1.9-4.6-1.9-1.7-4.9-1.7-1.6 0-3.5 0.6-1.9 0.6-3.6 1.6l-0.4-4.5q1.9-0.9 4-1.3 2.2-0.3 4.4-0.3 2.3 0 4.2 0.5 2 0.6 3.5 1.8 1.4 1.2 2.2 3 0.9 1.8 0.9 4.2 0 4-2 6.2-2.1 2.2-5.1 2.8v0.2q1.7 0.2 3.1 1 1.4 0.8 2.3 2.1 1 1.3 1.5 2.9 0.5 1.6 0.5 3.4 0 2.3-0.8 4.3-0.7 2-2.3 3.5-1.6 1.6-3.9 2.4-2.4 0.9-5.5 0.9-2.1 0-4.4-0.4-2.2-0.4-3.8-1z"/>
			<path id="&lt;Compound Path&gt;" class="s2" d="m6423 2906.6q1.9 1.1 3.8 1.7 1.9 0.6 3.5 0.6 1.6 0 3-0.6 1.4-0.6 2.5-1.5 1.1-1 1.8-2.5 0.6-1.4 0.6-3.2 0-2.9-2-4.7-2-1.8-5.5-1.8h-3.6v-4h2q4.5 0 6.8-1.9 2.2-1.9 2.2-4.9 0-2.9-1.9-4.6-1.9-1.7-4.9-1.7-1.6 0-3.5 0.6-2 0.6-3.6 1.6l-0.4-4.5q1.8-0.9 4-1.3 2.1-0.3 4.4-0.3 2.3 0 4.2 0.5 2 0.6 3.4 1.8 1.5 1.2 2.3 3 0.8 1.8 0.8 4.2 0 4-2 6.2-2 2.2-5.1 2.8v0.2q1.8 0.2 3.2 1 1.4 0.8 2.3 2.1 1 1.3 1.5 2.9 0.5 1.6 0.5 3.4 0 2.3-0.8 4.3-0.8 2-2.3 3.5-1.6 1.6-4 2.4-2.3 0.9-5.4 0.9-2.1 0-4.4-0.4-2.3-0.4-3.9-1z"/>
			<path id="&lt;Compound Path&gt;" class="s2" d="m6449 2908.2q7.3-8.4 11-14.3 3.6-5.8 3.6-9.7 0-1.3-0.3-2.5-0.4-1.1-1.1-2-0.7-0.9-1.7-1.4-1.1-0.6-2.6-0.6-1.6 0-3.7 0.9-2 0.8-3.6 2.1l-0.7-4.8q2.5-1.2 4.9-1.8 2.4-0.5 4.2-0.5 2.2 0 4 0.7 1.8 0.8 3.1 2.1 1.2 1.3 1.9 3.1 0.7 1.8 0.7 3.8 0 2.5-1.1 5.5-1.1 3.1-3 6.3-1.9 3.3-4.5 6.7-2.6 3.3-5.7 6.4h14.9v4.2h-20.3z"/>
			<path id="&lt;Compound Path&gt;" fill-rule="evenodd" class="s2" d="m6475.5 2902.3q0-3.7 1.9-6.1 2-2.4 5.3-3.7-1.8-0.9-3-2-1.2-1.1-2-2.4-0.7-1.3-1.1-2.6-0.3-1.3-0.3-2.6 0-1.7 0.6-3.4 0.7-1.7 2.1-3 1.3-1.3 3.2-2.1 1.9-0.8 4.5-0.8 2.5 0 4.4 0.8 2 0.8 3.3 2.1 1.3 1.3 2 3 0.7 1.7 0.7 3.4 0 1.3-0.4 2.6-0.3 1.3-1.1 2.6-0.7 1.3-1.9 2.4-1.3 1.1-3 2 3.3 1.3 5.2 3.7 2 2.4 2 6.1 0 2.2-0.8 4.2-0.8 1.9-2.2 3.3-1.5 1.4-3.6 2.2-2 0.8-4.6 0.8-2.6 0-4.7-0.8-2.1-0.8-3.5-2.2-1.5-1.4-2.2-3.3-0.8-2-0.8-4.2zm4.8-0.6q0 1.5 0.5 2.8 0.4 1.3 1.3 2.2 0.9 1 2.1 1.6 1.2 0.6 2.8 0.6 2.7 0 4.3-2 1.7-1.9 1.7-4.8 0-2.7-1.5-4.5-1.5-1.8-5.2-3.5-1.8 1-2.9 1.9-1.2 0.9-1.9 1.8-0.7 1-0.9 1.9-0.3 1-0.3 2zm0.8-18.4q0 1.9 1.3 3.8 1.3 2 4.7 3.5 2.3-1.6 3.7-3.6 1.4-1.9 1.4-4.1 0-1-0.4-2-0.4-1-1.1-1.7-0.8-0.8-1.8-1.2-1-0.5-2.2-0.5-1.2 0-2.2 0.5-1 0.4-1.8 1.2-0.7 0.8-1.2 1.8-0.4 1-0.4 2.3z"/>
			<path id="&lt;Compound Path&gt;" fill-rule="evenodd" class="s2" d="m6503.9 2907.2q1.3 0.8 2.8 1.2 1.5 0.5 3.1 0.5 2.4 0 4.2-1.2 1.9-1.1 3.1-3.1 1.3-2 1.9-4.8 0.7-2.8 0.7-6.2h-0.1q-1 2.2-3 3.5-2 1.2-4.6 1.2-2.4 0-4.3-1-1.9-1-3.2-2.7-1.2-1.7-1.9-3.9-0.6-2.1-0.6-4.4 0-3.2 0.8-5.6 0.9-2.3 2.4-3.9 1.4-1.6 3.5-2.4 2-0.8 4.3-0.8 3.1 0 5.3 1.2 2.1 1.3 3.5 3.6 1.3 2.4 1.9 5.7 0.6 3.4 0.6 7.5 0 21.2-14.2 21.2-1.8 0-3.5-0.3-1.7-0.3-2.9-0.8zm2.9-21.2q0 1.5 0.4 3 0.4 1.5 1.1 2.7 0.7 1.2 1.9 1.9 1.1 0.8 2.7 0.8 1.5 0 2.7-0.8 1.1-0.7 1.9-1.9 0.7-1.2 1.1-2.7 0.4-1.5 0.4-3 0-1.6-0.4-3.1-0.4-1.5-1.1-2.7-0.8-1.2-1.9-1.9-1.2-0.8-2.7-0.8-1.6 0-2.7 0.8-1.2 0.7-1.9 1.9-0.7 1.2-1.1 2.7-0.4 1.5-0.4 3.1z"/>
		</g>
		<g id="&lt;Group&gt;">
			<g id="&lt;Group&gt;">
				<path id="&lt;Path&gt;" class="s0" d="m2762.2 3370.4h-18.1c-60.3 0-86.6 61.6-111.4 116.1-24.8-54.5-51.4-116.1-111.4-116.1h-18.1l109.3 190.3q20.2 0 40.4 0z"/>
				<path id="&lt;Path&gt;" class="s0" d="m2944.3 3625.1l-9.1-15.7c-30.2-52.3-96.6-44.2-156.2-38.4 34.8-48.8 74.8-102.6 44.8-154.6l-9-15.7-110.2 189.9q10.1 17.4 20.2 34.9z"/>
				<path id="&lt;Path&gt;" class="s0" d="m2814.7 3910.1l9.1-15.7c30.2-52.3-10.1-105.8-44.8-154.5 59.6 5.7 126.2 13.5 156.2-38.5l9.1-15.6-219.5-0.5q-10.1 17.5-20.2 34.9z"/>
				<path id="&lt;Path&gt;" class="s0" d="m2503.1 3940.4h18.2c60.3 0 86.5-61.6 111.4-116.1 24.8 54.5 51.3 116.1 111.4 116.1h18.1l-109.4-190.3q-20.1 0-40.3 0z"/>
				<path id="&lt;Path&gt;" class="s0" d="m2321.1 3685.7l9 15.7c30.2 52.3 96.7 44.2 156.3 38.4-34.8 48.8-74.9 102.6-44.9 154.6l9.1 15.6 110.1-189.8q-10.1-17.5-20.2-34.9z"/>
				<path id="&lt;Path&gt;" class="s0" d="m2450.6 3400.7l-9 15.7c-30.2 52.3 10 105.7 44.8 154.5-59.6-5.7-126.2-13.6-156.2 38.4l-9.1 15.7 219.5 0.5q10.1-17.5 20.1-35z"/>
			</g>
			<path id="&lt;Compound Path&gt;" fill-rule="evenodd" class="s0" d="m241.6 3739.1l-20.7-53h-66.8l-20.4 53h-19.6l65.8-167.3h16.3l65.5 167.3zm-26.7-70.5l-19.4-51.6c-2.5-6.5-5.1-14.5-7.8-24-1.6 7.3-4 15.3-7.2 24l-19.6 51.6zm60.7 70.5v-166.6h19.4v149.1h73.4v17.5zm112 0v-166.6h19.4v166.6zm129.7 0l-56.5-147.7h-0.9q1.6 17.6 1.6 41.7v106h-17.9v-166.6h29.2l52.7 137.4h0.9l53.2-137.4h29v166.6h-19.4v-107.3q0-18.5 1.6-40.1h-0.9l-57 147.4zm220.7 0h-92.8v-166.6h92.8v17.3h-73.5v53.6h69v17.1h-69v61.3h73.5zm157.9 0h-22l-91-139.8h-1c1.2 16.5 1.9 31.5 1.9 45.1v94.7h-17.9v-166.5h21.8l90.8 139.2h0.9c-0.1-2.1-0.4-8.7-1-19.8-0.5-11.1-0.7-19.1-0.6-23.9v-95.5h18.1zm88 0h-19.3v-149.3h-52.7v-17.3h124.7v17.3h-52.7zm208.7-83.5c0 26.7-6.8 47.7-20.2 62.9q-20.2 22.9-56.3 22.9-36.8 0-56.7-22.5-20-22.5-20-63.5c0-27.1 6.7-48.1 20-63q20.1-22.4 57-22.4c23.9 0 42.6 7.6 56 22.8q20.2 22.8 20.2 62.8zm-132.7 0q0 33.8 14.4 51.3 14.4 17.5 41.8 17.5 27.8 0 41.9-17.4 14.1-17.5 14.1-51.4c0-22.4-4.7-39.4-14.1-51q-14-17.3-41.6-17.3c-18.5 0-32.5 5.8-42.1 17.5q-14.4 17.4-14.4 50.8zm254.8 39.3q0 21.9-16 34.2c-10.6 8.2-25 12.3-43.3 12.3q-29.6 0-45.5-7.6v-18.7c6.8 2.8 14.2 5.1 22.3 6.8q12 2.5 23.9 2.5 19.4 0 29.2-7.3 9.8-7.3 9.8-20.5c0-5.7-1.2-10.5-3.5-14.1-2.3-3.7-6.2-7.1-11.6-10.2q-8.2-4.7-24.8-10.6-23.2-8.3-33.2-19.7-10-11.4-10-29.7 0-19.3 14.5-30.7 14.5-11.4 38.3-11.4 24.8 0 45.6 9.1l-6 16.9q-20.6-8.7-40.1-8.7c-10.2 0-18.3 2.2-24 6.6-5.8 4.4-8.7 10.5-8.7 18.4 0 5.8 1.1 10.5 3.2 14.2q3.2 5.5 10.8 10.1 7.5 4.6 23.2 10.2 26.1 9.3 36 20.1c6.6 7.1 9.9 16.4 9.9 27.8z"/>
			<g id="&lt;Group&gt;">
				<path id="&lt;Path&gt;" class="s0" d="m2054.8 3577h-73.3l83.6 157.6c-5.3 14.8-21.2 16.7-33.6 16.7-4.5 0-9.2-0.6-14.3-1.4l-3.9 32c10.5 2.7 21.4 3.5 32.2 3.5 43.9 0 70.6-17.5 83.9-50.5l62.7-157.9h-68.5l-27.8 82.7z"/>
				<path id="&lt;Path&gt;" class="s0" d="m1946.6 3623.5c7.6 0 15.9 1.9 23.5 3.7v-49.2c-15.6-3.7-30.1-3.9-46.5-3.9-46.6 0-82.5 32-82.5 73v93.1h67.7v-79.1c0-19.3 7.9-37.6 37.8-37.6z"/>
				<path id="&lt;Compound Path&gt;" fill-rule="evenodd" class="s0" d="m1824.3 3659.7l0.1 35.7c0 25.3-22.4 44.9-44.7 44.9h-48.1c-53.5 0-86.3-14.6-86.3-52.5 0-42.8 58.3-54.5 115.4-46l0.2-8c0.3-17.6-27.1-20.6-39-20.6-18.8 0-41.5 2.9-60.5 7.7v-37.6c23-6.8 46.8-8.7 71.4-8.7 57.9 0 91.7 28.8 91.5 85.1zm-87.9 8c-16.9 0-24.6 8.1-24.6 21 0 10.9 6.6 18.8 22.2 18.8 11.1 0 25.7-4.8 25.7-17.7v-19.5c-11.1-2.1-17.2-2.6-23.3-2.6z"/>
				<path id="&lt;Path&gt;" class="s0" d="m1629.4 3740.2v-198.4h-18.9c-62.9 0-90.3 64.2-116.1 121-25.9-56.8-53.6-121-116.2-121h-18.8v198.4h62.2v-107.1l51.7 107.1q21.1 0 42.1 0 25.9-53.6 51.7-107.1v107.1z"/>
			</g>
		</g>
		<g id="&lt;Group&gt;">
			<path id="&lt;Compound Path&gt;" class="s0" d="m115.3 3827.2q0.6 0.1 1.3 0.3 0.7 0.2 1.4 0.2 4.9 0 4.9-6.1v-28.1h4.8v28.4q0 2.3-0.4 4.2-0.5 1.9-1.6 3.3-1 1.4-2.6 2.2-1.6 0.8-3.7 0.8-1 0-2-0.2-1.1-0.1-2.1-0.2z"/>
			<path id="&lt;Compound Path&gt;" fill-rule="evenodd" class="s0" d="m133.5 3812.7q0-9.7 2.8-14.6 2.9-5 8.4-5 5.4 0 8.3 5 2.9 4.9 2.9 14.6 0 9.7-2.9 14.7-2.9 5-8.3 5-5.5 0-8.4-5-2.8-5-2.8-14.7zm4.8 0q0 8.2 1.6 11.9 1.5 3.8 4.8 3.8 3.3 0 4.8-3.8 1.5-3.7 1.5-11.9 0-8.1-1.5-11.9-1.5-3.7-4.8-3.7-3.3 0-4.8 3.7-1.6 3.8-1.6 11.9z"/>
			<path id="&lt;Compound Path&gt;" fill-rule="evenodd" class="s0" d="m160 3821.8q0-3.7 1.9-6.1 2-2.4 5.3-3.7-1.8-0.8-3-2-1.2-1.1-2-2.4-0.8-1.2-1.1-2.5-0.4-1.4-0.4-2.6 0-1.8 0.7-3.5 0.7-1.7 2-3 1.4-1.3 3.3-2.1 1.9-0.8 4.4-0.8 2.6 0 4.5 0.8 1.9 0.8 3.3 2.1 1.3 1.3 2 3 0.7 1.7 0.7 3.5 0 1.2-0.4 2.6-0.3 1.3-1.1 2.5-0.7 1.3-2 2.4-1.2 1.2-2.9 2 3.3 1.3 5.2 3.7 1.9 2.4 1.9 6.1 0 2.3-0.7 4.2-0.8 1.9-2.3 3.3-1.4 1.5-3.5 2.3-2.1 0.8-4.7 0.8-2.5 0-4.6-0.8-2.1-0.8-3.6-2.3-1.4-1.4-2.2-3.3-0.7-1.9-0.7-4.2zm4.8-0.5q0 1.4 0.4 2.7 0.5 1.3 1.4 2.3 0.9 0.9 2.1 1.5 1.2 0.6 2.8 0.6 2.6 0 4.3-1.9 1.7-1.9 1.7-4.9 0-2.6-1.5-4.5-1.5-1.8-5.2-3.4-1.8 1-3 1.9-1.1 0.9-1.8 1.8-0.7 0.9-0.9 1.9-0.3 0.9-0.3 2zm0.8-18.5q0 1.9 1.3 3.9 1.3 1.9 4.7 3.4 2.3-1.6 3.7-3.5 1.4-2 1.4-4.1 0-1.1-0.4-2.1-0.4-1-1.2-1.7-0.7-0.8-1.7-1.2-1-0.4-2.3-0.4-1.1 0-2.1 0.4-1.1 0.4-1.8 1.2-0.7 0.8-1.2 1.8-0.4 1.1-0.4 2.3z"/>
			<path id="&lt;Compound Path&gt;" class="s0" d="m188 3826.3q1.2 0.8 3.1 1.5 1.9 0.6 3.5 0.6 1.9 0 3.4-0.7 1.4-0.6 2.5-1.8 1-1.2 1.6-2.8 0.5-1.6 0.5-3.4 0-4-2.1-6.1-2.1-2-6-2-1.5 0-2.9 0.3-1.5 0.3-3.5 0.9v-19.3h17.7v3.9h-13v10.8q0.9-0.3 2.1-0.4 1.1-0.2 2.2-0.2 2.2 0 4.1 0.7 1.9 0.7 3.3 2.2 1.5 1.4 2.4 3.5 0.8 2.2 0.8 5.1 0 2.9-0.8 5.4-0.7 2.5-2.3 4.2-1.6 1.7-3.9 2.7-2.3 1-5.4 1-1.9 0-3.9-0.4-1.9-0.4-3.7-1.2z"/>
			<path id="&lt;Compound Path&gt;" fill-rule="evenodd" class="s0" d="m212.9 3812.7q0-9.7 2.9-14.6 2.8-5 8.3-5 5.5 0 8.3 5 2.9 4.9 2.9 14.6 0 9.7-2.9 14.7-2.8 5-8.3 5-5.5 0-8.3-5-2.9-5-2.9-14.7zm4.8 0q0 8.2 1.6 11.9 1.5 3.8 4.8 3.8 3.3 0 4.8-3.8 1.5-3.7 1.5-11.9 0-8.1-1.5-11.9-1.5-3.7-4.8-3.7-3.3 0-4.8 3.7-1.6 3.8-1.6 11.9z"/>
			<path id="&lt;Compound Path&gt;" class="s0" d="m239.8 3826.2q1.9 1 3.8 1.6 1.9 0.6 3.5 0.6 1.6 0 3-0.6 1.5-0.5 2.6-1.5 1.1-1 1.7-2.4 0.6-1.5 0.6-3.2 0-3-2-4.8-1.9-1.8-5.5-1.8h-3.6v-4h2q4.6 0 6.8-1.9 2.2-1.9 2.2-4.9 0-2.8-1.9-4.5-1.9-1.7-4.9-1.7-1.6 0-3.5 0.5-1.9 0.6-3.6 1.6l-0.4-4.5q1.9-0.9 4-1.3 2.2-0.3 4.4-0.3 2.3 0 4.2 0.6 2 0.5 3.5 1.7 1.4 1.2 2.2 3 0.9 1.8 0.9 4.2 0 4-2 6.2-2.1 2.3-5.1 2.9v0.1q1.7 0.2 3.1 1 1.4 0.9 2.3 2.1 1 1.3 1.5 2.9 0.5 1.7 0.5 3.5 0 2.2-0.8 4.2-0.7 2.1-2.3 3.6-1.6 1.5-3.9 2.4-2.4 0.9-5.5 0.9-2.1 0-4.4-0.5-2.2-0.4-3.8-1z"/>
			<path id="&lt;Compound Path&gt;" class="s0" d="m266.3 3826.2q1.9 1 3.8 1.6 1.9 0.6 3.5 0.6 1.6 0 3-0.6 1.4-0.5 2.5-1.5 1.1-1 1.8-2.4 0.6-1.5 0.6-3.2 0-3-2-4.8-2-1.8-5.5-1.8h-3.6v-4h2q4.5 0 6.8-1.9 2.2-1.9 2.2-4.9 0-2.8-1.9-4.5-1.9-1.7-4.9-1.7-1.6 0-3.5 0.5-2 0.6-3.6 1.6l-0.4-4.5q1.8-0.9 4-1.3 2.1-0.3 4.4-0.3 2.3 0 4.2 0.6 2 0.5 3.4 1.7 1.5 1.2 2.3 3 0.8 1.8 0.8 4.2 0 4-2 6.2-2 2.3-5.1 2.9v0.1q1.8 0.2 3.2 1 1.4 0.9 2.3 2.1 1 1.3 1.5 2.9 0.5 1.7 0.5 3.5 0 2.2-0.8 4.2-0.8 2.1-2.3 3.6-1.6 1.5-4 2.4-2.3 0.9-5.4 0.9-2.1 0-4.4-0.5-2.3-0.4-3.9-1z"/>
			<path id="&lt;Compound Path&gt;" class="s0" d="m292.3 3827.7q7.3-8.4 11-14.2 3.6-5.9 3.6-9.8 0-1.3-0.3-2.4-0.4-1.2-1.1-2.1-0.7-0.9-1.7-1.4-1.1-0.5-2.6-0.5-1.6 0-3.6 0.8-2.1 0.8-3.7 2.2l-0.7-4.9q2.5-1.2 4.9-1.8 2.4-0.5 4.2-0.5 2.2 0 4 0.8 1.8 0.7 3.1 2.1 1.2 1.3 1.9 3 0.7 1.8 0.7 3.8 0 2.5-1.1 5.6-1.1 3-3 6.3-1.9 3.3-4.5 6.6-2.6 3.3-5.7 6.5h14.9v4.2h-20.3z"/>
			<path id="&lt;Compound Path&gt;" fill-rule="evenodd" class="s0" d="m318.8 3821.8q0-3.7 1.9-6.1 2-2.4 5.3-3.7-1.8-0.8-3-2-1.2-1.1-2-2.4-0.7-1.2-1.1-2.5-0.3-1.4-0.3-2.6 0-1.8 0.6-3.5 0.7-1.7 2.1-3 1.3-1.3 3.2-2.1 1.9-0.8 4.5-0.8 2.5 0 4.4 0.8 2 0.8 3.3 2.1 1.3 1.3 2 3 0.7 1.7 0.7 3.5 0 1.2-0.4 2.6-0.3 1.3-1.1 2.5-0.7 1.3-1.9 2.4-1.3 1.2-3 2 3.3 1.3 5.2 3.7 2 2.4 2 6.1 0 2.3-0.8 4.2-0.8 1.9-2.2 3.3-1.5 1.5-3.6 2.3-2 0.8-4.6 0.8-2.6 0-4.7-0.8-2.1-0.8-3.5-2.3-1.5-1.4-2.2-3.3-0.8-1.9-0.8-4.2zm4.8-0.5q0 1.4 0.5 2.7 0.4 1.3 1.3 2.3 0.9 0.9 2.1 1.5 1.2 0.6 2.8 0.6 2.7 0 4.3-1.9 1.7-1.9 1.7-4.9 0-2.6-1.5-4.5-1.5-1.8-5.2-3.4-1.8 1-2.9 1.9-1.2 0.9-1.9 1.8-0.7 0.9-0.9 1.9-0.3 0.9-0.3 2zm0.8-18.5q0 1.9 1.3 3.9 1.3 1.9 4.7 3.4 2.3-1.6 3.7-3.5 1.4-2 1.4-4.1 0-1.1-0.4-2.1-0.4-1-1.1-1.7-0.8-0.8-1.8-1.2-1-0.4-2.2-0.4-1.2 0-2.2 0.4-1 0.4-1.8 1.2-0.7 0.8-1.2 1.8-0.4 1.1-0.4 2.3z"/>
			<path id="&lt;Compound Path&gt;" fill-rule="evenodd" class="s0" d="m347.2 3826.7q1.3 0.8 2.8 1.2 1.5 0.5 3.1 0.5 2.4 0 4.2-1.1 1.9-1.1 3.1-3.1 1.3-2 2-4.9 0.6-2.8 0.6-6.2h-0.1q-1 2.3-3 3.5-2 1.3-4.6 1.3-2.4 0-4.3-1.1-1.9-1-3.2-2.7-1.2-1.7-1.9-3.8-0.6-2.2-0.6-4.5 0-3.2 0.8-5.5 0.9-2.4 2.4-4 1.4-1.6 3.5-2.4 2-0.8 4.3-0.8 3.1 0 5.3 1.3 2.1 1.2 3.5 3.6 1.3 2.3 1.9 5.7 0.6 3.3 0.6 7.5 0 21.2-14.2 21.2-1.8 0-3.5-0.3-1.7-0.4-2.9-0.8zm2.9-21.3q0 1.6 0.4 3.1 0.4 1.4 1.1 2.6 0.7 1.2 1.9 2 1.1 0.7 2.7 0.7 1.5 0 2.7-0.7 1.1-0.8 1.9-2 0.7-1.2 1.1-2.6 0.4-1.5 0.4-3.1 0-1.5-0.4-3-0.4-1.6-1.1-2.8-0.8-1.2-1.9-1.9-1.2-0.7-2.7-0.7-1.6 0-2.7 0.7-1.2 0.7-1.9 1.9-0.7 1.2-1.1 2.8-0.4 1.5-0.4 3z"/>
		</g>
		<path id="&lt;Path&gt;" class="s2" d="m6136.7 4093h-3058.4v-874.2h3058.4z"/>
		<g id="&lt;Group&gt;">
			<path id="&lt;Compound Path&gt;" class="s0" d="m3193.7 3827.2q0.6 0.1 1.3 0.3 0.7 0.2 1.4 0.2 4.8 0 4.8-6.1v-28.1h4.9v28.4q0 2.3-0.5 4.2-0.5 1.9-1.5 3.3-1 1.4-2.6 2.2-1.6 0.8-3.8 0.8-0.9 0-2-0.2-1.1-0.1-2-0.2z"/>
			<path id="&lt;Compound Path&gt;" fill-rule="evenodd" class="s0" d="m3211.8 3812.7q0-9.7 2.9-14.6 2.9-5 8.3-5 5.5 0 8.4 5 2.8 4.9 2.8 14.6 0 9.7-2.8 14.7-2.9 5-8.4 5-5.4 0-8.3-5-2.9-5-2.9-14.7zm4.9 0q0 8.2 1.5 11.9 1.5 3.8 4.8 3.8 3.3 0 4.9-3.8 1.5-3.7 1.5-11.9 0-8.1-1.5-11.9-1.6-3.7-4.9-3.7-3.3 0-4.8 3.7-1.5 3.8-1.5 11.9z"/>
			<path id="&lt;Compound Path&gt;" fill-rule="evenodd" class="s0" d="m3238.3 3821.8q0-3.7 2-6.1 1.9-2.4 5.2-3.7-1.7-0.8-3-2-1.2-1.1-1.9-2.4-0.8-1.2-1.2-2.5-0.3-1.4-0.3-2.6 0-1.8 0.7-3.5 0.7-1.7 2-3 1.3-1.3 3.2-2.1 2-0.8 4.5-0.8 2.5 0 4.5 0.8 1.9 0.8 3.2 2.1 1.3 1.3 2 3 0.7 1.7 0.7 3.5 0 1.2-0.3 2.6-0.4 1.3-1.1 2.5-0.8 1.3-2 2.4-1.3 1.2-3 2 3.3 1.3 5.3 3.7 1.9 2.4 1.9 6.1 0 2.3-0.8 4.2-0.8 1.9-2.2 3.3-1.5 1.5-3.5 2.3-2.1 0.8-4.7 0.8-2.6 0-4.7-0.8-2.1-0.8-3.5-2.3-1.5-1.4-2.2-3.3-0.8-1.9-0.8-4.2zm4.9-0.5q0 1.4 0.4 2.7 0.4 1.3 1.3 2.3 0.9 0.9 2.1 1.5 1.2 0.6 2.8 0.6 2.7 0 4.4-1.9 1.6-1.9 1.6-4.9 0-2.6-1.5-4.5-1.5-1.8-5.1-3.4-1.9 1-3 1.9-1.2 0.9-1.9 1.8-0.6 0.9-0.9 1.9-0.2 0.9-0.2 2zm0.7-18.5q0 1.9 1.3 3.9 1.3 1.9 4.7 3.4 2.4-1.6 3.8-3.5 1.4-2 1.4-4.1 0-1.1-0.4-2.1-0.5-1-1.2-1.7-0.7-0.8-1.8-1.2-1-0.4-2.2-0.4-1.2 0-2.2 0.4-1 0.4-1.7 1.2-0.8 0.8-1.2 1.8-0.5 1.1-0.5 2.3z"/>
			<path id="&lt;Compound Path&gt;" class="s0" d="m3266.3 3826.3q1.3 0.8 3.2 1.5 1.8 0.6 3.5 0.6 1.8 0 3.3-0.7 1.5-0.6 2.5-1.8 1.1-1.2 1.6-2.8 0.6-1.6 0.6-3.4 0-4-2.1-6.1-2.2-2-6.1-2-1.4 0-2.9 0.3-1.4 0.3-3.4 0.9v-19.3h17.7v3.9h-13.1v10.8q1-0.3 2.1-0.4 1.2-0.2 2.3-0.2 2.1 0 4 0.7 1.9 0.7 3.4 2.2 1.5 1.4 2.3 3.5 0.9 2.2 0.9 5.1 0 2.9-0.8 5.4-0.8 2.5-2.4 4.2-1.5 1.7-3.8 2.7-2.4 1-5.4 1-1.9 0-3.9-0.4-2-0.4-3.7-1.2z"/>
			<path id="&lt;Compound Path&gt;" fill-rule="evenodd" class="s0" d="m3291.2 3812.7q0-9.7 2.9-14.6 2.9-5 8.3-5 5.5 0 8.4 5 2.8 4.9 2.8 14.6 0 9.7-2.8 14.7-2.9 5-8.4 5-5.4 0-8.3-5-2.9-5-2.9-14.7zm4.9 0q0 8.2 1.5 11.9 1.5 3.8 4.8 3.8 3.4 0 4.9-3.8 1.5-3.7 1.5-11.9 0-8.1-1.5-11.9-1.5-3.7-4.9-3.7-3.3 0-4.8 3.7-1.5 3.8-1.5 11.9z"/>
			<path id="&lt;Compound Path&gt;" class="s0" d="m3318.2 3826.2q1.9 1 3.8 1.6 1.9 0.6 3.5 0.6 1.5 0 3-0.6 1.4-0.5 2.5-1.5 1.1-1 1.7-2.4 0.7-1.5 0.7-3.2 0-3-2-4.8-2-1.8-5.5-1.8h-3.6v-4h2q4.5 0 6.7-1.9 2.3-1.9 2.3-4.9 0-2.8-1.9-4.5-1.9-1.7-5-1.7-1.5 0-3.4 0.5-2 0.6-3.6 1.6l-0.5-4.5q1.9-0.9 4.1-1.3 2.1-0.3 4.4-0.3 2.2 0 4.2 0.6 1.9 0.5 3.4 1.7 1.5 1.2 2.3 3 0.8 1.8 0.8 4.2 0 4-2 6.2-2 2.3-5.1 2.9v0.1q1.8 0.2 3.2 1 1.3 0.9 2.3 2.1 1 1.3 1.5 2.9 0.5 1.7 0.5 3.5 0 2.2-0.8 4.2-0.8 2.1-2.4 3.6-1.5 1.5-3.9 2.4-2.3 0.9-5.5 0.9-2.1 0-4.3-0.5-2.3-0.4-3.9-1z"/>
			<path id="&lt;Compound Path&gt;" class="s0" d="m3344.6 3826.2q2 1 3.9 1.6 1.9 0.6 3.5 0.6 1.5 0 2.9-0.6 1.5-0.5 2.6-1.5 1.1-1 1.7-2.4 0.7-1.5 0.7-3.2 0-3-2-4.8-2-1.8-5.5-1.8h-3.6v-4h2q4.5 0 6.7-1.9 2.2-1.9 2.2-4.9 0-2.8-1.9-4.5-1.9-1.7-4.9-1.7-1.5 0-3.5 0.5-1.9 0.6-3.6 1.6l-0.4-4.5q1.9-0.9 4-1.3 2.2-0.3 4.4-0.3 2.3 0 4.3 0.6 1.9 0.5 3.4 1.7 1.4 1.2 2.3 3 0.8 1.8 0.8 4.2 0 4-2 6.2-2 2.3-5.1 2.9v0.1q1.7 0.2 3.1 1 1.4 0.9 2.4 2.1 0.9 1.3 1.4 2.9 0.5 1.7 0.5 3.5 0 2.2-0.7 4.2-0.8 2.1-2.4 3.6-1.6 1.5-3.9 2.4-2.4 0.9-5.5 0.9-2.1 0-4.4-0.5-2.2-0.4-3.8-1z"/>
			<path id="&lt;Compound Path&gt;" class="s0" d="m3370.7 3827.7q7.3-8.4 10.9-14.2 3.7-5.9 3.7-9.8 0-1.3-0.4-2.4-0.3-1.2-1-2.1-0.7-0.9-1.8-1.4-1.1-0.5-2.5-0.5-1.7 0-3.7 0.8-2 0.8-3.7 2.2l-0.6-4.9q2.5-1.2 4.9-1.8 2.4-0.5 4.1-0.5 2.2 0 4.1 0.8 1.8 0.7 3 2.1 1.3 1.3 2 3 0.6 1.8 0.6 3.8 0 2.5-1 5.6-1.1 3-3 6.3-1.9 3.3-4.5 6.6-2.6 3.3-5.8 6.5h14.9v4.2h-20.2z"/>
			<path id="&lt;Compound Path&gt;" fill-rule="evenodd" class="s0" d="m3397.1 3821.8q0-3.7 2-6.1 1.9-2.4 5.3-3.7-1.8-0.8-3-2-1.2-1.1-2-2.4-0.8-1.2-1.1-2.5-0.4-1.4-0.4-2.6 0-1.8 0.7-3.5 0.7-1.7 2-3 1.3-1.3 3.3-2.1 1.9-0.8 4.4-0.8 2.6 0 4.5 0.8 1.9 0.8 3.2 2.1 1.4 1.3 2.1 3 0.7 1.7 0.7 3.5 0 1.2-0.4 2.6-0.4 1.3-1.1 2.5-0.8 1.3-2 2.4-1.2 1.2-2.9 2 3.3 1.3 5.2 3.7 1.9 2.4 1.9 6.1 0 2.3-0.7 4.2-0.8 1.9-2.3 3.3-1.4 1.5-3.5 2.3-2.1 0.8-4.7 0.8-2.6 0-4.7-0.8-2.1-0.8-3.5-2.3-1.4-1.4-2.2-3.3-0.8-1.9-0.8-4.2zm4.9-0.5q0 1.4 0.4 2.7 0.5 1.3 1.4 2.3 0.8 0.9 2 1.5 1.3 0.6 2.9 0.6 2.6 0 4.3-1.9 1.7-1.9 1.7-4.9 0-2.6-1.5-4.5-1.6-1.8-5.2-3.4-1.8 1-3 1.9-1.1 0.9-1.8 1.8-0.7 0.9-1 1.9-0.2 0.9-0.2 2zm0.8-18.5q0 1.9 1.3 3.9 1.2 1.9 4.7 3.4 2.3-1.6 3.7-3.5 1.4-2 1.4-4.1 0-1.1-0.4-2.1-0.4-1-1.2-1.7-0.7-0.8-1.7-1.2-1.1-0.4-2.3-0.4-1.1 0-2.2 0.4-1 0.4-1.7 1.2-0.8 0.8-1.2 1.8-0.4 1.1-0.4 2.3z"/>
			<path id="&lt;Compound Path&gt;" fill-rule="evenodd" class="s0" d="m3425.5 3826.7q1.3 0.8 2.8 1.2 1.5 0.5 3.1 0.5 2.4 0 4.3-1.1 1.9-1.1 3.1-3.1 1.2-2 1.9-4.9 0.7-2.8 0.7-6.2h-0.1q-1 2.3-3 3.5-2 1.3-4.7 1.3-2.4 0-4.3-1.1-1.8-1-3.1-2.7-1.3-1.7-1.9-3.8-0.7-2.2-0.7-4.5 0-3.2 0.9-5.5 0.8-2.4 2.3-4 1.5-1.6 3.5-2.4 2.1-0.8 4.4-0.8 3.1 0 5.2 1.3 2.2 1.2 3.5 3.6 1.4 2.3 2 5.7 0.6 3.3 0.6 7.5 0 21.2-14.3 21.2-1.8 0-3.4-0.3-1.7-0.4-3-0.8zm2.9-21.3q0 1.6 0.4 3.1 0.4 1.4 1.2 2.6 0.7 1.2 1.8 2 1.2 0.7 2.7 0.7 1.5 0 2.7-0.7 1.2-0.8 1.9-2 0.8-1.2 1.1-2.6 0.4-1.5 0.4-3.1 0-1.5-0.4-3-0.3-1.6-1.1-2.8-0.7-1.2-1.9-1.9-1.2-0.7-2.7-0.7-1.5 0-2.7 0.7-1.1 0.7-1.8 1.9-0.8 1.2-1.2 2.8-0.4 1.5-0.4 3z"/>
		</g>
		<g id="&lt;Group&gt;">
			<g id="&lt;Group&gt;">
				<path id="&lt;Path&gt;" class="s0" d="m5840.6 3370.4h-18.1c-60.4 0-86.6 61.6-111.4 116.1-24.9-54.5-51.4-116.1-111.5-116.1h-18.1l109.4 190.3q20.2 0 40.3 0z"/>
				<path id="&lt;Path&gt;" class="s0" d="m6022.6 3625.1l-9-15.7c-30.2-52.3-96.7-44.2-156.3-38.4 34.8-48.8 74.9-102.6 44.9-154.6l-9.1-15.7-110.1 189.9q10.1 17.4 20.2 34.9z"/>
				<path id="&lt;Path&gt;" class="s0" d="m5893.1 3910.1l9-15.7c30.2-52.3-10-105.8-44.8-154.5 59.6 5.7 126.2 13.5 156.2-38.5l9.1-15.6-219.5-0.5q-10 17.5-20.1 34.9z"/>
				<path id="&lt;Path&gt;" class="s0" d="m5581.5 3940.4h18.1c60.4 0 86.6-61.6 111.4-116.1 24.8 54.5 51.4 116.1 111.4 116.1h18.1l-109.3-190.3q-20.2 0-40.4 0z"/>
				<path id="&lt;Path&gt;" class="s0" d="m5399.4 3685.7l9.1 15.7c30.2 52.3 96.6 44.2 156.2 38.4-34.8 48.8-74.8 102.6-44.8 154.6l9.1 15.6 110.1-189.8q-10.1-17.5-20.2-34.9z"/>
				<path id="&lt;Path&gt;" class="s0" d="m5529 3400.7l-9.1 15.7c-30.2 52.3 10.1 105.7 44.9 154.5-59.7-5.7-126.3-13.6-156.3 38.4l-9 15.7 219.4 0.5q10.1-17.5 20.2-35z"/>
			</g>
			<path id="&lt;Compound Path&gt;" fill-rule="evenodd" class="s0" d="m3320 3739.1l-20.7-53h-66.8l-20.5 53h-19.6l65.9-167.3h16.3l65.5 167.3zm-26.8-70.5l-19.4-51.6c-2.5-6.5-5.1-14.5-7.7-24-1.7 7.3-4.1 15.3-7.2 24l-19.6 51.6zm60.6 70.5v-166.6h19.4v149.1h73.4v17.5zm112.1 0v-166.6h19.3v166.6zm129.8 0l-56.6-147.7h-0.8q1.5 17.6 1.5 41.7v106h-17.8v-166.6h29.1l52.8 137.4h0.9l53.2-137.4h28.9v166.6h-19.4v-107.3q0.1-18.5 1.6-40.1h-0.9l-56.9 147.4zm220.6 0h-92.8v-166.6h92.8v17.3h-73.4v53.6h69v17.1h-69v61.3h73.4zm158 0h-22.1l-91-139.8h-0.9c1.2 16.5 1.8 31.5 1.8 45.1v94.7h-17.9v-166.5h21.9l90.8 139.2h0.9c-0.2-2.1-0.5-8.7-1-19.8-0.6-11.1-0.8-19.1-0.6-23.9v-95.5h18.1zm88 0h-19.4v-149.3h-52.7v-17.3h124.8v17.3h-52.7zm208.7-83.5c0 26.7-6.8 47.7-20.3 62.9q-20.2 22.9-56.2 22.9-36.8 0-56.8-22.5-20-22.5-20-63.5c0-27.1 6.7-48.1 20.1-63q20-22.4 56.9-22.4c24 0 42.6 7.6 56.1 22.8q20.2 22.8 20.2 62.8zm-132.8 0q0 33.8 14.4 51.3 14.5 17.5 41.9 17.5 27.7 0 41.8-17.4 14.1-17.5 14.1-51.4c0-22.4-4.6-39.4-14-51q-14.1-17.3-41.7-17.3c-18.4 0-32.4 5.8-42.1 17.5q-14.4 17.4-14.4 50.8zm254.8 39.3q0 21.9-15.9 34.2c-10.7 8.2-25.1 12.3-43.3 12.3q-29.6 0-45.6-7.6v-18.7c6.9 2.8 14.3 5.1 22.3 6.8q12.1 2.5 24 2.5 19.3 0 29.1-7.3 9.8-7.3 9.8-20.5c0-5.7-1.1-10.5-3.4-14.1-2.4-3.7-6.2-7.1-11.6-10.2q-8.2-4.7-24.9-10.6-23.2-8.3-33.1-19.7-10-11.4-10-29.7 0-19.3 14.4-30.7 14.5-11.4 38.3-11.4 24.9 0 45.7 9.1l-6 16.9q-20.7-8.7-40.2-8.7c-10.2 0-18.2 2.2-24 6.6-5.8 4.4-8.6 10.5-8.6 18.4 0 5.8 1 10.5 3.1 14.2q3.2 5.5 10.8 10.1 7.6 4.6 23.2 10.2 26.2 9.3 36.1 20.1c6.5 7.1 9.8 16.4 9.8 27.8z"/>
			<g id="&lt;Group&gt;">
				<path id="&lt;Path&gt;" class="s0" d="m5133.1 3577h-73.2l83.6 157.6c-5.3 14.8-21.2 16.7-33.6 16.7-4.5 0-9.3-0.6-14.3-1.4l-4 32c10.6 2.7 21.4 3.5 32.3 3.5 43.9 0 70.6-17.5 83.8-50.5l62.7-157.9h-68.5l-27.8 82.7z"/>
				<path id="&lt;Path&gt;" class="s0" d="m5024.9 3623.5c7.7 0 15.9 1.9 23.6 3.7v-49.2c-15.6-3.7-30.2-3.9-46.6-3.9-46.5 0-82.5 32-82.5 73v93.1h67.7v-79.1c0-19.3 7.9-37.6 37.8-37.6z"/>
				<path id="&lt;Compound Path&gt;" fill-rule="evenodd" class="s0" d="m4902.6 3659.7l0.1 35.7c0 25.3-22.4 44.9-44.7 44.9h-48c-53.5 0-86.4-14.6-86.4-52.5 0-42.8 58.4-54.5 115.5-46l0.1-8c0.4-17.6-27.1-20.6-39-20.6-18.8 0-41.4 2.9-60.5 7.7v-37.6c23-6.8 46.8-8.7 71.4-8.7 58 0 91.7 28.8 91.5 85.1zm-87.8 8c-17 0-24.6 8.1-24.6 21 0 10.9 6.6 18.8 22.2 18.8 11.1 0 25.6-4.8 25.6-17.7v-19.5c-11.1-2.1-17.2-2.6-23.2-2.6z"/>
				<path id="&lt;Path&gt;" class="s0" d="m4707.7 3740.2v-198.4h-18.9c-62.9 0-90.2 64.2-116.1 121-25.9-56.8-53.5-121-116.1-121h-18.9v198.4h62.2v-107.1l51.8 107.1q21 0 42 0 25.9-53.6 51.8-107.1l-0.1 107.1z"/>
			</g>
		</g>
	</g>
</svg>