<svg version="1.1" id="Layer_1" xmlns="http://www.w3.org/2000/svg" xmlns:xlink="http://www.w3.org/1999/xlink" x="0px" y="0px"
	 width="100%" viewBox="0 0 1024 822" enable-background="new 0 0 1024 822" xml:space="preserve">
<path fill="#000000" opacity="1.000000" stroke="none" 
	d="
M735.000000,823.000000 
	C490.000000,823.000000 245.500000,823.000000 1.000000,823.000000 
	C1.000000,549.000000 1.000000,275.000000 1.000000,1.000000 
	C342.333344,1.000000 683.666687,1.000000 1025.000000,1.000000 
	C1025.000000,275.000000 1025.000000,549.000000 1025.000000,823.000000 
	C928.500000,823.000000 832.000000,823.000000 735.000000,823.000000 
M365.500000,301.000000 
	C392.659546,301.000000 419.819366,301.043976 446.978119,300.896423 
	C448.701263,300.887054 451.159271,299.856934 452.011078,298.505035 
	C456.544952,291.309296 460.675568,283.859436 464.980286,276.437988 
	C439.847260,233.128342 414.730042,189.845993 389.129608,145.730896 
	C387.298096,148.732147 386.183228,150.648315 384.983917,152.510101 
	C376.055878,166.369629 372.654022,181.363266 376.289154,197.567841 
	C379.493591,211.852249 386.372742,224.564529 394.277344,236.718903 
	C399.693512,245.046982 405.421295,253.172363 411.347900,261.885468 
	C405.280823,261.563416 399.760681,261.459381 394.279175,260.944092 
	C377.658844,259.381744 361.031067,258.786591 344.578674,262.067566 
	C322.614319,266.447784 308.500732,280.204773 300.056946,301.000000 
	C321.650452,301.000000 343.075226,301.000000 365.500000,301.000000 
M569.028992,129.462891 
	C558.904724,133.569550 550.673401,139.958099 543.771484,148.548386 
	C533.778809,160.985611 526.151184,174.659973 519.915955,189.248764 
	C518.006714,193.715851 515.477722,197.918076 512.786987,203.099640 
	C510.119385,197.148224 508.119751,192.080917 505.636780,187.262711 
	C498.548126,173.507355 491.753143,159.645142 481.492004,147.707642 
	C474.760834,139.876816 467.069489,134.121475 457.741669,129.835754 
	C446.915649,124.861671 435.690186,126.353668 424.148132,125.965408 
	C425.226013,128.335373 425.984070,130.450729 427.090271,132.364929 
	C438.029724,151.294434 449.095367,170.151245 459.989349,189.106781 
	C472.077789,210.140671 484.016693,231.260452 496.040741,252.331406 
	C497.911835,255.610321 500.240601,257.512878 504.597290,257.138214 
	C510.882416,256.597717 517.267822,257.275024 523.568909,256.836029 
	C525.514771,256.700439 528.002869,255.048141 529.075012,253.352112 
	C532.850159,247.379959 536.055847,241.051193 539.590637,234.922958 
	C548.022278,220.305161 556.536377,205.734924 564.983154,191.125824 
	C572.060181,178.885803 579.099243,166.623810 586.135925,154.360535 
	C591.456238,145.088409 596.746216,135.798874 602.276306,126.120483 
	C590.946167,125.999573 580.122803,125.015831 569.028992,129.462891 
M649.502258,260.000000 
	C638.028442,260.527222 626.554626,261.054443 615.478210,261.563416 
	C623.207092,249.278931 631.025146,237.276169 638.408691,225.011795 
	C648.000671,209.079071 653.574768,192.053452 649.932800,173.195465 
	C648.028931,163.337189 642.807739,154.941437 636.853333,146.027557 
	C633.401184,151.909683 630.370178,156.987534 627.422241,162.113190 
	C618.448181,177.716888 609.573425,193.378098 600.535400,208.944595 
	C587.945740,230.628403 575.320190,252.292480 562.492676,273.835602 
	C560.877869,276.547485 562.006775,278.321716 563.071594,280.234772 
	C566.277893,285.995300 569.940247,291.512909 572.937805,297.374237 
	C574.471985,300.374084 576.310242,301.078064 579.472351,301.071167 
	C626.798706,300.968292 674.125427,301.000000 721.452026,301.000000 
	C722.890259,301.000000 724.328552,301.000000 726.399231,301.000000 
	C724.303711,297.045013 722.616882,293.631104 720.726196,290.334137 
	C713.869080,278.376801 704.244568,269.773499 691.132385,264.904388 
	C677.908875,259.993958 664.274170,259.715240 649.502258,260.000000 
M487.502228,403.998627 
	C486.748962,405.418762 486.039948,406.864502 485.235748,408.255157 
	C475.577972,424.954559 465.896454,441.640198 456.241058,458.341003 
	C449.003754,470.859344 441.774628,483.382507 434.582977,495.927094 
	C431.022095,502.138428 427.553955,508.402924 423.843231,515.000000 
	C428.755402,515.000000 432.928528,514.836304 437.085144,515.028931 
	C453.104614,515.771362 466.209717,509.344849 477.128937,498.269714 
	C490.612732,484.593323 499.106598,467.673340 507.017700,450.441986 
	C508.704803,446.767334 510.582123,443.180054 512.371826,439.552521 
	C512.974060,439.595367 513.576294,439.638214 514.178589,439.681061 
	C515.920898,444.096649 517.226013,448.752014 519.490540,452.881226 
	C525.438721,463.727386 531.647827,474.439331 538.049500,485.025452 
	C544.153809,495.119965 552.596924,503.031464 562.759583,508.928162 
	C574.862549,515.950684 588.180115,515.565552 601.988281,514.723511 
	C599.858154,510.875275 597.957275,507.362579 595.984253,503.890869 
	C588.756958,491.174103 581.554810,478.442719 574.250183,465.770416 
	C566.222778,451.844299 558.089294,437.979309 550.008362,424.084015 
	C542.735901,411.578735 535.525391,399.036591 528.120483,386.610291 
	C527.389832,385.384125 525.514404,384.160492 524.131958,384.115570 
	C516.640747,383.872253 509.135742,383.919037 501.640228,384.082367 
	C500.431000,384.108734 498.734039,384.908844 498.133179,385.886414 
	C494.600586,391.633820 491.326111,397.539886 487.502228,403.998627 
M399.030182,396.665375 
	C392.679443,408.518066 385.711700,420.089325 380.142151,432.298370 
	C373.899323,445.983398 372.698120,460.550140 378.150238,474.877441 
	C380.792847,481.821808 384.837921,488.232452 388.427490,495.234711 
	C389.370850,494.201385 390.192993,493.558136 390.686371,492.721069 
	C396.480927,482.889740 402.276093,473.058075 407.971710,463.169250 
	C414.948822,451.055450 421.749481,438.839569 428.774292,426.753723 
	C440.085541,407.293274 451.481293,387.881561 462.935883,368.505157 
	C464.785034,365.377197 464.346130,362.801666 462.480927,359.904938 
	C459.351227,355.044373 455.989868,350.230133 453.679901,344.976898 
	C451.809967,340.724365 449.311432,339.837128 445.046448,339.910553 
	C415.800781,340.414276 386.551422,340.744202 357.302002,340.972229 
	C338.368805,341.119843 319.433472,341.000000 299.856934,341.000000 
	C301.752563,344.228027 303.542297,346.883545 304.944427,349.730011 
	C311.633545,363.309937 322.501953,372.360596 336.622284,376.773254 
	C344.865204,379.349213 353.777008,380.406525 362.451172,380.820404 
	C372.838837,381.316040 383.295654,380.442749 393.719330,380.072571 
	C399.453400,379.868958 405.180908,379.481171 411.643646,379.137512 
	C407.177429,385.327240 403.311188,390.685394 399.030182,396.665375 
M609.500000,340.000000 
	C603.669250,340.000000 597.838440,339.981354 592.007751,340.005432 
	C586.514526,340.028107 579.901184,338.225616 575.837463,340.659821 
	C571.616333,343.188293 570.426086,350.299835 566.899902,354.573456 
	C561.112122,361.588104 561.810486,367.259003 566.729858,374.768433 
	C575.426025,388.043091 582.627686,402.291504 590.580200,416.059937 
	C602.070679,435.953827 613.656555,455.792694 625.237000,475.634460 
	C629.067566,482.197601 633.006714,488.697327 637.159729,495.668304 
	C639.489136,491.373077 641.298828,487.607452 643.489258,484.078125 
	C649.921570,473.714111 652.334473,462.294312 650.845032,450.457428 
	C648.505249,431.862030 639.453247,415.921051 629.158264,400.644928 
	C624.424500,393.620758 619.713196,386.581451 614.469177,378.770660 
	C621.867432,379.571899 628.446106,380.672516 635.055786,380.908905 
	C644.876160,381.260132 654.720154,381.123047 664.550659,380.969635 
	C677.517944,380.767273 689.840576,377.983490 701.178955,371.381561 
	C713.177551,364.395172 719.799866,353.216461 726.324219,340.000000 
	C686.972961,340.000000 648.736511,340.000000 609.500000,340.000000 
M667.964661,620.389648 
	C664.482605,626.911255 661.005310,633.435425 657.513672,639.951904 
	C656.962524,640.980469 656.346558,641.974243 655.760559,642.984131 
	C654.845276,642.043823 653.675049,641.246460 653.054993,640.140625 
	C647.974609,631.079773 643.735596,621.444885 637.816956,612.979980 
	C628.607605,599.808533 615.539551,593.932861 599.268127,596.380554 
	C599.268127,623.958679 599.268127,651.351685 599.268127,678.733521 
	C608.273987,678.733521 617.009521,678.733521 626.064819,678.733521 
	C626.064819,666.707336 626.064819,654.943115 626.064819,643.178894 
	C626.442139,642.966248 626.819397,642.753601 627.196716,642.540955 
	C628.128967,643.687439 629.311035,644.710083 629.951721,646.001221 
	C633.296997,652.743530 637.215698,659.315491 639.592224,666.397339 
	C643.078369,676.786255 649.209229,681.118225 660.184875,679.163269 
	C663.480469,678.576294 665.575195,678.282837 667.155579,674.752625 
	C672.410950,663.013184 678.222290,651.522644 683.820435,639.936646 
	C684.197693,639.992371 684.575012,640.048157 684.952271,640.103882 
	C684.952271,653.042725 684.952271,665.981567 684.952271,678.657043 
	C694.429993,678.657043 703.168457,678.657043 711.672974,678.657043 
	C711.672974,650.918030 711.672974,623.522705 711.672974,596.221069 
	C701.391724,595.236206 691.435669,595.927795 683.547852,602.405884 
	C677.641418,607.256714 673.152161,613.833191 667.964661,620.389648 
M942.962891,616.410339 
	C943.639221,614.721619 944.315552,613.032837 945.129456,611.000488 
	C935.551758,611.000488 926.558594,610.926697 917.570068,611.097168 
	C916.490417,611.117615 914.837036,612.240173 914.469360,613.230530 
	C912.466675,618.624573 910.821960,624.150146 908.978333,629.604919 
	C907.543701,633.849670 905.998291,638.056885 904.117004,643.367981 
	C898.911926,632.813965 894.449829,623.545471 889.725098,614.412720 
	C888.974609,612.962036 887.070068,611.192017 885.652710,611.150330 
	C875.933960,610.864685 866.202942,611.000427 856.032227,611.000427 
	C857.720581,614.371826 859.098877,617.258972 860.592651,620.085022 
	C870.050537,637.978394 879.592773,655.827576 888.963623,673.766235 
	C891.040649,677.742554 889.437500,681.099854 885.000549,681.885864 
	C880.526245,682.678467 875.917603,682.712891 871.045837,683.105469 
	C870.654724,687.091492 870.194824,691.778625 869.584351,697.999939 
	C876.752991,697.999939 883.297668,698.467346 889.752319,697.903870 
	C903.733154,696.683350 913.524536,690.467346 918.965332,676.955078 
	C921.416565,670.867310 923.658386,664.695557 926.058167,658.586609 
	C931.502747,644.726990 936.986206,630.882629 942.962891,616.410339 
M730.504944,676.053345 
	C734.873779,677.035583 739.215942,678.690674 743.616882,678.865723 
	C754.098267,679.282593 764.607544,679.004150 775.105530,678.998718 
	C784.137695,678.994019 791.989624,671.210999 791.998535,662.254089 
	C792.005798,654.922119 791.969849,647.590027 792.007263,640.258301 
	C792.060669,629.776306 787.283813,621.797363 778.890686,616.039124 
	C766.260986,607.374268 751.917480,609.889404 737.982544,610.585388 
	C733.278381,610.820435 728.635803,612.289001 724.368286,613.115662 
	C724.368286,619.183533 724.368286,624.557800 724.368286,629.277100 
	C733.775330,628.500610 742.854797,627.373352 751.959106,627.112305 
	C760.101624,626.878906 764.807617,630.837341 764.774841,636.508911 
	C755.218140,637.006531 745.533691,636.704895 736.176392,638.310242 
	C730.845337,639.224915 724.767822,642.125061 721.264526,646.102478 
	C712.667969,655.862366 717.478638,671.097778 730.504944,676.053345 
M289.000000,620.521606 
	C289.000000,617.081360 289.000000,613.641174 289.000000,610.113770 
	C284.140533,610.113770 279.841003,610.113770 275.574799,610.113770 
	C268.518860,628.225342 261.494995,646.254578 254.104065,665.226013 
	C252.957275,663.260925 252.361526,662.494263 252.025650,661.626892 
	C245.663742,645.198608 239.358536,628.748230 232.929443,612.346375 
	C232.549515,611.377075 231.265808,610.176636 230.332047,610.112488 
	C226.600449,609.856262 222.840912,610.006836 219.338257,610.006836 
	C219.338257,634.106934 219.338257,657.521057 219.338257,680.836975 
	C221.971848,680.836975 224.265884,680.836975 227.346527,680.836975 
	C227.346527,662.465332 227.346527,644.244751 227.346527,626.024170 
	C227.745239,625.981201 228.143951,625.938232 228.542664,625.895325 
	C235.569519,644.199829 242.596375,662.504333 249.998932,681.787537 
	C252.598831,680.863525 256.965820,680.613831 257.711212,678.841248 
	C263.854065,664.233154 269.308411,649.336060 275.013397,634.542664 
	C276.148682,631.598816 277.463593,628.724121 278.695648,625.817566 
	C279.137817,625.943787 279.579956,626.069946 280.022095,626.196167 
	C280.022095,644.394409 280.022095,662.592590 280.022095,680.721313 
	C283.296936,680.721313 286.034882,680.721313 288.628326,680.721313 
	C288.824402,680.300171 288.948669,680.157837 288.948853,680.015320 
	C288.971771,660.515930 288.985687,641.016479 289.000000,620.521606 
M798.000000,665.492065 
	C798.000000,669.924255 798.000000,674.356506 798.000000,678.726440 
	C807.962402,678.726440 817.360962,678.726440 827.000000,678.726440 
	C827.000000,675.486145 826.919373,672.511230 827.015076,669.542053 
	C827.307007,660.480591 827.466675,651.407898 828.073669,642.366150 
	C828.451538,636.737061 831.953796,632.744507 837.357666,632.122437 
	C842.431152,631.538452 847.624817,631.997375 852.886475,631.997375 
	C852.886475,625.528320 852.886475,618.563416 852.886475,610.138611 
	C845.187866,610.092224 837.543213,609.979919 829.899170,610.013245 
	C812.037476,610.091003 798.042725,623.405823 798.002686,642.021057 
	C797.986572,649.512451 798.000000,657.003845 798.000000,665.492065 
M353.000000,674.423157 
	C353.000000,676.532776 353.000000,678.642334 353.000000,680.740784 
	C356.258759,680.740784 358.996521,680.740784 362.301575,680.740784 
	C362.301575,662.683350 362.301575,644.879272 362.301575,627.075195 
	C373.494904,642.562256 383.875488,658.189087 393.941040,674.016174 
	C398.580811,681.311707 399.436493,681.989380 408.739746,680.469543 
	C408.739746,657.062622 408.739746,633.655762 408.739746,610.262512 
	C405.733490,610.262512 402.996368,610.262512 399.691223,610.262512 
	C399.691223,628.322144 399.691223,646.125061 399.691223,664.713745 
	C398.679657,663.749817 398.303253,663.504883 398.078705,663.160828 
	C388.044067,647.783997 377.715332,632.586182 368.151978,616.921143 
	C364.350464,610.694092 359.999146,608.544250 353.000000,610.611023 
	C353.000000,631.501038 353.000000,652.469482 353.000000,674.423157 
M473.982941,620.526245 
	C472.645172,623.059570 471.046051,625.491516 470.016876,628.144531 
	C466.376495,637.528625 465.958435,647.335876 468.193604,656.960449 
	C469.629120,663.141907 472.009430,669.196045 477.158417,673.799011 
	C482.226349,678.329529 488.040070,680.057678 494.544708,681.404846 
	C505.590057,683.692383 522.321594,678.186829 528.014404,666.135620 
	C533.444702,654.640137 533.271667,642.763000 530.300903,630.859009 
	C528.147888,622.231873 523.187195,615.819092 514.673218,611.775024 
	C507.516876,608.375732 500.197571,608.396545 493.064453,609.276489 
	C485.797638,610.172974 478.741791,613.054565 473.982941,620.526245 
M132.966843,675.721558 
	C134.571457,681.589905 134.775131,681.682068 143.982086,680.610229 
	C143.882767,679.817017 143.943832,678.962341 143.661194,678.242737 
	C135.182068,656.654053 126.560730,635.120056 118.269844,613.459595 
	C116.918091,609.928040 114.749863,610.133301 111.942062,609.916931 
	C108.528023,609.653931 107.901764,611.956421 107.011673,614.241028 
	C103.004105,624.527222 99.019249,634.822388 94.984818,645.098022 
	C90.332520,656.947388 85.636742,668.779541 80.809418,681.000000 
	C82.500145,681.000000 83.698006,680.799805 84.803459,681.034607 
	C89.608063,682.055298 91.690552,679.647095 93.032471,675.369934 
	C94.757103,669.872986 97.009377,664.541504 99.086349,659.000000 
	C106.775360,659.000000 114.268173,659.208313 121.740768,658.910156 
	C125.357254,658.765869 127.041725,660.043579 128.067337,663.398499 
	C129.279404,667.363525 131.029678,671.164062 132.966843,675.721558 
M323.515839,648.000000 
	C329.287140,648.000000 335.058441,648.000000 340.709381,648.000000 
	C340.709381,645.016113 340.709381,642.608948 340.709381,639.817688 
	C331.014008,639.817688 321.603394,639.817688 312.294617,639.817688 
	C312.294617,632.338928 312.294617,625.266602 312.294617,617.814819 
	C322.668579,617.814819 332.752838,617.814819 342.706085,617.814819 
	C342.706085,615.010254 342.706085,612.602844 342.706085,610.294434 
	C329.339844,610.294434 316.269470,610.294434 303.291443,610.294434 
	C303.291443,633.990784 303.291443,657.391663 303.291443,680.713806 
	C316.660431,680.713806 329.736053,680.713806 342.709198,680.713806 
	C342.709198,677.681274 342.709198,674.942200 342.709198,671.818359 
	C332.347809,671.818359 322.271790,671.818359 312.293579,671.818359 
	C312.293579,663.674622 312.293579,655.935913 312.293579,648.000000 
	C315.896606,648.000000 319.209534,648.000000 323.515839,648.000000 
M554.480408,647.043396 
	C559.011841,649.031982 563.716614,650.708862 568.021423,653.104736 
	C571.663391,655.131592 574.611328,658.186951 573.975708,662.987366 
	C573.346924,667.735291 570.995117,670.878845 565.995483,672.101074 
	C556.413330,674.443481 547.394897,672.562134 538.502686,669.043213 
	C537.074280,678.300110 538.449402,680.575378 546.349792,680.938721 
	C552.820557,681.236328 559.327087,681.241455 565.797363,680.938293 
	C573.697327,680.568115 581.578552,673.921143 582.974060,666.963379 
	C584.972351,657.000366 581.381104,649.316528 572.618408,644.974182 
	C565.881653,641.635742 559.059631,638.466370 552.368469,635.040222 
	C548.248596,632.930664 548.243652,628.655334 549.264038,625.299927 
	C550.016663,622.825012 552.783081,620.573853 555.182068,619.065735 
	C560.947266,615.441528 567.079895,617.918030 572.927673,619.114563 
	C579.342712,620.427124 579.272827,620.748840 581.184143,614.499512 
	C581.329773,614.023193 581.584473,613.580200 581.895264,612.881653 
	C572.196411,609.100952 562.787537,607.722717 552.944519,609.978088 
	C542.636108,612.340149 537.071838,622.402649 539.783264,632.534912 
	C541.839355,640.218323 547.274048,643.893311 554.480408,647.043396 
M431.381927,618.000000 
	C432.823914,618.000000 434.265930,618.000000 436.094971,618.000000 
	C436.094971,639.234253 436.094971,659.977661 436.094971,680.754333 
	C439.232452,680.754333 441.969849,680.754333 445.097473,680.754333 
	C445.097473,659.771790 445.097473,639.031006 445.097473,617.902100 
	C452.573273,617.902100 459.659393,617.902100 466.752563,617.902100 
	C466.752563,615.095764 466.752563,612.690613 466.752563,610.246582 
	C449.092041,610.246582 431.680023,610.246582 414.247803,610.246582 
	C414.247803,612.905029 414.247803,615.310120 414.247803,618.000000 
	C419.794312,618.000000 425.098206,618.000000 431.381927,618.000000 
M149.000000,645.500000 
	C149.000000,657.262756 149.000000,669.025452 149.000000,680.717651 
	C162.650543,680.717651 175.726669,680.717651 188.713211,680.717651 
	C188.713211,677.686768 188.713211,674.949158 188.713211,671.825012 
	C178.355331,671.825012 168.278824,671.825012 157.825226,671.825012 
	C157.825226,651.014832 157.825226,630.604309 157.825226,610.287476 
	C154.687836,610.287476 151.948792,610.287476 149.000000,610.287476 
	C149.000000,621.882385 149.000000,633.191223 149.000000,645.500000 
M205.000000,635.500000 
	C205.000000,627.063538 205.000000,618.627014 205.000000,610.287109 
	C201.688843,610.287109 198.949692,610.287109 196.282333,610.287109 
	C196.282333,633.983704 196.282333,657.392151 196.282333,680.712952 
	C199.311096,680.712952 202.050247,680.712952 205.000000,680.712952 
	C205.000000,665.784607 205.000000,651.142273 205.000000,635.500000 
z"/>
<path fill="#FFFFFF" opacity="1.000000" stroke="none" 
	d="
M365.000000,301.000000 
	C343.075226,301.000000 321.650452,301.000000 300.056946,301.000000 
	C308.500732,280.204773 322.614319,266.447784 344.578674,262.067566 
	C361.031067,258.786591 377.658844,259.381744 394.279175,260.944092 
	C399.760681,261.459381 405.280823,261.563416 411.347900,261.885468 
	C405.421295,253.172363 399.693512,245.046982 394.277344,236.718903 
	C386.372742,224.564529 379.493591,211.852249 376.289154,197.567841 
	C372.654022,181.363266 376.055878,166.369629 384.983917,152.510101 
	C386.183228,150.648315 387.298096,148.732147 389.129608,145.730896 
	C414.730042,189.845993 439.847260,233.128342 464.980286,276.437988 
	C460.675568,283.859436 456.544952,291.309296 452.011078,298.505035 
	C451.159271,299.856934 448.701263,300.887054 446.978119,300.896423 
	C419.819366,301.043976 392.659546,301.000000 365.000000,301.000000 
z"/>
<path fill="#FFFFFF" opacity="1.000000" stroke="none" 
	d="
M569.374695,129.245087 
	C580.122803,125.015831 590.946167,125.999573 602.276306,126.120483 
	C596.746216,135.798874 591.456238,145.088409 586.135925,154.360535 
	C579.099243,166.623810 572.060181,178.885803 564.983154,191.125824 
	C556.536377,205.734924 548.022278,220.305161 539.590637,234.922958 
	C536.055847,241.051193 532.850159,247.379959 529.075012,253.352112 
	C528.002869,255.048141 525.514771,256.700439 523.568909,256.836029 
	C517.267822,257.275024 510.882416,256.597717 504.597290,257.138214 
	C500.240601,257.512878 497.911835,255.610321 496.040741,252.331406 
	C484.016693,231.260452 472.077789,210.140671 459.989349,189.106781 
	C449.095367,170.151245 438.029724,151.294434 427.090271,132.364929 
	C425.984070,130.450729 425.226013,128.335373 424.148132,125.965408 
	C435.690186,126.353668 446.915649,124.861671 457.741669,129.835754 
	C467.069489,134.121475 474.760834,139.876816 481.492004,147.707642 
	C491.753143,159.645142 498.548126,173.507355 505.636780,187.262711 
	C508.119751,192.080917 510.119385,197.148224 512.786987,203.099640 
	C515.477722,197.918076 518.006714,193.715851 519.915955,189.248764 
	C526.151184,174.659973 533.778809,160.985611 543.771484,148.548386 
	C550.673401,139.958099 558.904724,133.569550 569.374695,129.245087 
z"/>
<path fill="#FFFFFF" opacity="1.000000" stroke="none" 
	d="
M650.001831,260.000000 
	C664.274170,259.715240 677.908875,259.993958 691.132385,264.904388 
	C704.244568,269.773499 713.869080,278.376801 720.726196,290.334137 
	C722.616882,293.631104 724.303711,297.045013 726.399231,301.000000 
	C724.328552,301.000000 722.890259,301.000000 721.452026,301.000000 
	C674.125427,301.000000 626.798706,300.968292 579.472351,301.071167 
	C576.310242,301.078064 574.471985,300.374084 572.937805,297.374237 
	C569.940247,291.512909 566.277893,285.995300 563.071594,280.234772 
	C562.006775,278.321716 560.877869,276.547485 562.492676,273.835602 
	C575.320190,252.292480 587.945740,230.628403 600.535400,208.944595 
	C609.573425,193.378098 618.448181,177.716888 627.422241,162.113190 
	C630.370178,156.987534 633.401184,151.909683 636.853333,146.027557 
	C642.807739,154.941437 648.028931,163.337189 649.932800,173.195465 
	C653.574768,192.053452 648.000671,209.079071 638.408691,225.011795 
	C631.025146,237.276169 623.207092,249.278931 615.478210,261.563416 
	C626.554626,261.054443 638.028442,260.527222 650.001831,260.000000 
z"/>
<path fill="#FFFFFF" opacity="1.000000" stroke="none" 
	d="
M487.733459,403.695557 
	C491.326111,397.539886 494.600586,391.633820 498.133179,385.886414 
	C498.734039,384.908844 500.431000,384.108734 501.640228,384.082367 
	C509.135742,383.919037 516.640747,383.872253 524.131958,384.115570 
	C525.514404,384.160492 527.389832,385.384125 528.120483,386.610291 
	C535.525391,399.036591 542.735901,411.578735 550.008362,424.084015 
	C558.089294,437.979309 566.222778,451.844299 574.250183,465.770416 
	C581.554810,478.442719 588.756958,491.174103 595.984253,503.890869 
	C597.957275,507.362579 599.858154,510.875275 601.988281,514.723511 
	C588.180115,515.565552 574.862549,515.950684 562.759583,508.928162 
	C552.596924,503.031464 544.153809,495.119965 538.049500,485.025452 
	C531.647827,474.439331 525.438721,463.727386 519.490540,452.881226 
	C517.226013,448.752014 515.920898,444.096649 514.178589,439.681061 
	C513.576294,439.638214 512.974060,439.595367 512.371826,439.552521 
	C510.582123,443.180054 508.704803,446.767334 507.017700,450.441986 
	C499.106598,467.673340 490.612732,484.593323 477.128937,498.269714 
	C466.209717,509.344849 453.104614,515.771362 437.085144,515.028931 
	C432.928528,514.836304 428.755402,515.000000 423.843231,515.000000 
	C427.553955,508.402924 431.022095,502.138428 434.582977,495.927094 
	C441.774628,483.382507 449.003754,470.859344 456.241058,458.341003 
	C465.896454,441.640198 475.577972,424.954559 485.235748,408.255157 
	C486.039948,406.864502 486.748962,405.418762 487.733459,403.695557 
z"/>
<path fill="#FFFFFF" opacity="1.000000" stroke="none" 
	d="
M399.237549,396.354462 
	C403.311188,390.685394 407.177429,385.327240 411.643646,379.137512 
	C405.180908,379.481171 399.453400,379.868958 393.719330,380.072571 
	C383.295654,380.442749 372.838837,381.316040 362.451172,380.820404 
	C353.777008,380.406525 344.865204,379.349213 336.622284,376.773254 
	C322.501953,372.360596 311.633545,363.309937 304.944427,349.730011 
	C303.542297,346.883545 301.752563,344.228027 299.856934,341.000000 
	C319.433472,341.000000 338.368805,341.119843 357.302002,340.972229 
	C386.551422,340.744202 415.800781,340.414276 445.046448,339.910553 
	C449.311432,339.837128 451.809967,340.724365 453.679901,344.976898 
	C455.989868,350.230133 459.351227,355.044373 462.480927,359.904938 
	C464.346130,362.801666 464.785034,365.377197 462.935883,368.505157 
	C451.481293,387.881561 440.085541,407.293274 428.774292,426.753723 
	C421.749481,438.839569 414.948822,451.055450 407.971710,463.169250 
	C402.276093,473.058075 396.480927,482.889740 390.686371,492.721069 
	C390.192993,493.558136 389.370850,494.201385 388.427490,495.234711 
	C384.837921,488.232452 380.792847,481.821808 378.150238,474.877441 
	C372.698120,460.550140 373.899323,445.983398 380.142151,432.298370 
	C385.711700,420.089325 392.679443,408.518066 399.237549,396.354462 
z"/>
<path fill="#FFFFFF" opacity="1.000000" stroke="none" 
	d="
M610.000000,340.000000 
	C648.736511,340.000000 686.972961,340.000000 726.324219,340.000000 
	C719.799866,353.216461 713.177551,364.395172 701.178955,371.381561 
	C689.840576,377.983490 677.517944,380.767273 664.550659,380.969635 
	C654.720154,381.123047 644.876160,381.260132 635.055786,380.908905 
	C628.446106,380.672516 621.867432,379.571899 614.469177,378.770660 
	C619.713196,386.581451 624.424500,393.620758 629.158264,400.644928 
	C639.453247,415.921051 648.505249,431.862030 650.845032,450.457428 
	C652.334473,462.294312 649.921570,473.714111 643.489258,484.078125 
	C641.298828,487.607452 639.489136,491.373077 637.159729,495.668304 
	C633.006714,488.697327 629.067566,482.197601 625.237000,475.634460 
	C613.656555,455.792694 602.070679,435.953827 590.580200,416.059937 
	C582.627686,402.291504 575.426025,388.043091 566.729858,374.768433 
	C561.810486,367.259003 561.112122,361.588104 566.899902,354.573456 
	C570.426086,350.299835 571.616333,343.188293 575.837463,340.659821 
	C579.901184,338.225616 586.514526,340.028107 592.007751,340.005432 
	C597.838440,339.981354 603.669250,340.000000 610.000000,340.000000 
z"/>
<path fill="#FFFFFF" opacity="1.000000" stroke="none" 
	d="
M667.998291,620.015503 
	C673.152161,613.833191 677.641418,607.256714 683.547852,602.405884 
	C691.435669,595.927795 701.391724,595.236206 711.672974,596.221069 
	C711.672974,623.522705 711.672974,650.918030 711.672974,678.657043 
	C703.168457,678.657043 694.429993,678.657043 684.952271,678.657043 
	C684.952271,665.981567 684.952271,653.042725 684.952271,640.103882 
	C684.575012,640.048157 684.197693,639.992371 683.820435,639.936646 
	C678.222290,651.522644 672.410950,663.013184 667.155579,674.752625 
	C665.575195,678.282837 663.480469,678.576294 660.184875,679.163269 
	C649.209229,681.118225 643.078369,676.786255 639.592224,666.397339 
	C637.215698,659.315491 633.296997,652.743530 629.951721,646.001221 
	C629.311035,644.710083 628.128967,643.687439 627.196716,642.540955 
	C626.819397,642.753601 626.442139,642.966248 626.064819,643.178894 
	C626.064819,654.943115 626.064819,666.707336 626.064819,678.733521 
	C617.009521,678.733521 608.273987,678.733521 599.268127,678.733521 
	C599.268127,651.351685 599.268127,623.958679 599.268127,596.380554 
	C615.539551,593.932861 628.607605,599.808533 637.816956,612.979980 
	C643.735596,621.444885 647.974609,631.079773 653.054993,640.140625 
	C653.675049,641.246460 654.845276,642.043823 655.760559,642.984131 
	C656.346558,641.974243 656.962524,640.980469 657.513672,639.951904 
	C661.005310,633.435425 664.482605,626.911255 667.998291,620.015503 
z"/>
<path fill="#FFFFFF" opacity="1.000000" stroke="none" 
	d="
M942.708374,616.721191 
	C936.986206,630.882629 931.502747,644.726990 926.058167,658.586609 
	C923.658386,664.695557 921.416565,670.867310 918.965332,676.955078 
	C913.524536,690.467346 903.733154,696.683350 889.752319,697.903870 
	C883.297668,698.467346 876.752991,697.999939 869.584351,697.999939 
	C870.194824,691.778625 870.654724,687.091492 871.045837,683.105469 
	C875.917603,682.712891 880.526245,682.678467 885.000549,681.885864 
	C889.437500,681.099854 891.040649,677.742554 888.963623,673.766235 
	C879.592773,655.827576 870.050537,637.978394 860.592651,620.085022 
	C859.098877,617.258972 857.720581,614.371826 856.032227,611.000427 
	C866.202942,611.000427 875.933960,610.864685 885.652710,611.150330 
	C887.070068,611.192017 888.974609,612.962036 889.725098,614.412720 
	C894.449829,623.545471 898.911926,632.813965 904.117004,643.367981 
	C905.998291,638.056885 907.543701,633.849670 908.978333,629.604919 
	C910.821960,624.150146 912.466675,618.624573 914.469360,613.230530 
	C914.837036,612.240173 916.490417,611.117615 917.570068,611.097168 
	C926.558594,610.926697 935.551758,611.000488 945.129456,611.000488 
	C944.315552,613.032837 943.639221,614.721619 942.708374,616.721191 
z"/>
<path fill="#FFFFFF" opacity="1.000000" stroke="none" 
	d="
M730.102783,676.028076 
	C717.478638,671.097778 712.667969,655.862366 721.264526,646.102478 
	C724.767822,642.125061 730.845337,639.224915 736.176392,638.310242 
	C745.533691,636.704895 755.218140,637.006531 764.774841,636.508911 
	C764.807617,630.837341 760.101624,626.878906 751.959106,627.112305 
	C742.854797,627.373352 733.775330,628.500610 724.368286,629.277100 
	C724.368286,624.557800 724.368286,619.183533 724.368286,613.115662 
	C728.635803,612.289001 733.278381,610.820435 737.982544,610.585388 
	C751.917480,609.889404 766.260986,607.374268 778.890686,616.039124 
	C787.283813,621.797363 792.060669,629.776306 792.007263,640.258301 
	C791.969849,647.590027 792.005798,654.922119 791.998535,662.254089 
	C791.989624,671.210999 784.137695,678.994019 775.105530,678.998718 
	C764.607544,679.004150 754.098267,679.282593 743.616882,678.865723 
	C739.215942,678.690674 734.873779,677.035583 730.102783,676.028076 
M762.528076,661.980713 
	C763.277466,658.478149 764.026855,654.975525 764.776245,651.472961 
	C762.001282,650.981995 759.232910,650.447754 756.447754,650.023621 
	C755.478149,649.875854 754.465271,649.960693 753.475342,650.007385 
	C749.338074,650.202393 746.687256,652.583313 746.127075,656.418396 
	C745.564880,660.266785 747.302917,662.776611 751.500244,664.305664 
	C755.720947,665.843140 758.574524,663.614868 762.528076,661.980713 
z"/>
<path fill="#FFFFFF" opacity="1.000000" stroke="none" 
	d="
M289.000000,621.019348 
	C288.985687,641.016479 288.971771,660.515930 288.948853,680.015320 
	C288.948669,680.157837 288.824402,680.300171 288.628326,680.721313 
	C286.034882,680.721313 283.296936,680.721313 280.022095,680.721313 
	C280.022095,662.592590 280.022095,644.394409 280.022095,626.196167 
	C279.579956,626.069946 279.137817,625.943787 278.695648,625.817566 
	C277.463593,628.724121 276.148682,631.598816 275.013397,634.542664 
	C269.308411,649.336060 263.854065,664.233154 257.711212,678.841248 
	C256.965820,680.613831 252.598831,680.863525 249.998932,681.787537 
	C242.596375,662.504333 235.569519,644.199829 228.542664,625.895325 
	C228.143951,625.938232 227.745239,625.981201 227.346527,626.024170 
	C227.346527,644.244751 227.346527,662.465332 227.346527,680.836975 
	C224.265884,680.836975 221.971848,680.836975 219.338257,680.836975 
	C219.338257,657.521057 219.338257,634.106934 219.338257,610.006836 
	C222.840912,610.006836 226.600449,609.856262 230.332047,610.112488 
	C231.265808,610.176636 232.549515,611.377075 232.929443,612.346375 
	C239.358536,628.748230 245.663742,645.198608 252.025650,661.626892 
	C252.361526,662.494263 252.957275,663.260925 254.104065,665.226013 
	C261.494995,646.254578 268.518860,628.225342 275.574799,610.113770 
	C279.841003,610.113770 284.140533,610.113770 289.000000,610.113770 
	C289.000000,613.641174 289.000000,617.081360 289.000000,621.019348 
z"/>
<path fill="#FFFFFF" opacity="1.000000" stroke="none" 
	d="
M798.000000,664.993652 
	C798.000000,657.003845 797.986572,649.512451 798.002686,642.021057 
	C798.042725,623.405823 812.037476,610.091003 829.899170,610.013245 
	C837.543213,609.979919 845.187866,610.092224 852.886475,610.138611 
	C852.886475,618.563416 852.886475,625.528320 852.886475,631.997375 
	C847.624817,631.997375 842.431152,631.538452 837.357666,632.122437 
	C831.953796,632.744507 828.451538,636.737061 828.073669,642.366150 
	C827.466675,651.407898 827.307007,660.480591 827.015076,669.542053 
	C826.919373,672.511230 827.000000,675.486145 827.000000,678.726440 
	C817.360962,678.726440 807.962402,678.726440 798.000000,678.726440 
	C798.000000,674.356506 798.000000,669.924255 798.000000,664.993652 
z"/>
<path fill="#FFFFFF" opacity="1.000000" stroke="none" 
	d="
M353.000000,673.930542 
	C353.000000,652.469482 353.000000,631.501038 353.000000,610.611023 
	C359.999146,608.544250 364.350464,610.694092 368.151978,616.921143 
	C377.715332,632.586182 388.044067,647.783997 398.078705,663.160828 
	C398.303253,663.504883 398.679657,663.749817 399.691223,664.713745 
	C399.691223,646.125061 399.691223,628.322144 399.691223,610.262512 
	C402.996368,610.262512 405.733490,610.262512 408.739746,610.262512 
	C408.739746,633.655762 408.739746,657.062622 408.736969,680.469971 
	C399.436493,681.989380 398.580811,681.311707 393.941040,674.016174 
	C383.875488,658.189087 373.494904,642.562256 362.301575,627.075195 
	C362.301575,644.879272 362.301575,662.683350 362.301575,680.740784 
	C358.996521,680.740784 356.258759,680.740784 353.000000,680.740784 
	C353.000000,678.642334 353.000000,676.532776 353.000000,673.930542 
z"/>
<path fill="#FFFFFF" opacity="1.000000" stroke="none" 
	d="
M474.245544,620.257812 
	C478.741791,613.054565 485.797638,610.172974 493.064453,609.276489 
	C500.197571,608.396545 507.516876,608.375732 514.673218,611.775024 
	C523.187195,615.819092 528.147888,622.231873 530.300903,630.859009 
	C533.271667,642.763000 533.444702,654.640137 528.014404,666.135620 
	C522.321594,678.186829 505.590057,683.692383 494.544708,681.404846 
	C488.040070,680.057678 482.226349,678.329529 477.158417,673.799011 
	C472.009430,669.196045 469.629120,663.141907 468.193604,656.960449 
	C465.958435,647.335876 466.376495,637.528625 470.016876,628.144531 
	C471.046051,625.491516 472.645172,623.059570 474.245544,620.257812 
M490.813232,619.026367 
	C488.752411,620.315552 486.378784,621.285767 484.683838,622.947937 
	C476.512665,630.961243 475.975250,641.455261 477.331329,651.630615 
	C478.091156,657.331848 480.836761,663.820679 484.823700,667.830994 
	C494.564850,677.629150 518.045959,674.988098 521.073975,656.441650 
	C522.064270,650.376099 523.046143,644.598877 522.210876,638.241638 
	C520.085083,622.061646 506.669983,613.419922 490.813232,619.026367 
z"/>
<path fill="#FFFFFF" opacity="1.000000" stroke="none" 
	d="
M132.756744,675.378723 
	C131.029678,671.164062 129.279404,667.363525 128.067337,663.398499 
	C127.041725,660.043579 125.357254,658.765869 121.740768,658.910156 
	C114.268173,659.208313 106.775360,659.000000 99.086349,659.000000 
	C97.009377,664.541504 94.757103,669.872986 93.032471,675.369934 
	C91.690552,679.647095 89.608063,682.055298 84.803459,681.034607 
	C83.698006,680.799805 82.500145,681.000000 80.809418,681.000000 
	C85.636742,668.779541 90.332520,656.947388 94.984818,645.098022 
	C99.019249,634.822388 103.004105,624.527222 107.011673,614.241028 
	C107.901764,611.956421 108.528023,609.653931 111.942062,609.916931 
	C114.749863,610.133301 116.918091,609.928040 118.269844,613.459595 
	C126.560730,635.120056 135.182068,656.654053 143.661194,678.242737 
	C143.943832,678.962341 143.882767,679.817017 143.982086,680.610229 
	C134.775131,681.682068 134.571457,681.589905 132.756744,675.378723 
M110.959579,628.390930 
	C108.242409,635.446960 105.525238,642.502930 102.701080,649.836792 
	C109.786568,649.836792 116.168846,649.836792 122.917572,649.836792 
	C119.720512,641.316711 116.623100,633.062256 113.116013,623.715942 
	C112.003792,625.752136 111.501358,626.671997 110.959579,628.390930 
z"/>
<path fill="#FFFFFF" opacity="1.000000" stroke="none" 
	d="
M323.019165,648.000000 
	C319.209534,648.000000 315.896606,648.000000 312.293579,648.000000 
	C312.293579,655.935913 312.293579,663.674622 312.293579,671.818359 
	C322.271790,671.818359 332.347809,671.818359 342.709198,671.818359 
	C342.709198,674.942200 342.709198,677.681274 342.709198,680.713806 
	C329.736053,680.713806 316.660431,680.713806 303.291443,680.713806 
	C303.291443,657.391663 303.291443,633.990784 303.291443,610.294434 
	C316.269470,610.294434 329.339844,610.294434 342.706085,610.294434 
	C342.706085,612.602844 342.706085,615.010254 342.706085,617.814819 
	C332.752838,617.814819 322.668579,617.814819 312.294617,617.814819 
	C312.294617,625.266602 312.294617,632.338928 312.294617,639.817688 
	C321.603394,639.817688 331.014008,639.817688 340.709381,639.817688 
	C340.709381,642.608948 340.709381,645.016113 340.709381,648.000000 
	C335.058441,648.000000 329.287140,648.000000 323.019165,648.000000 
z"/>
<path fill="#FFFFFF" opacity="1.000000" stroke="none" 
	d="
M554.091553,647.007568 
	C547.274048,643.893311 541.839355,640.218323 539.783264,632.534912 
	C537.071838,622.402649 542.636108,612.340149 552.944519,609.978088 
	C562.787537,607.722717 572.196411,609.100952 581.895264,612.881653 
	C581.584473,613.580200 581.329773,614.023193 581.184143,614.499512 
	C579.272827,620.748840 579.342712,620.427124 572.927673,619.114563 
	C567.079895,617.918030 560.947266,615.441528 555.182068,619.065735 
	C552.783081,620.573853 550.016663,622.825012 549.264038,625.299927 
	C548.243652,628.655334 548.248596,632.930664 552.368469,635.040222 
	C559.059631,638.466370 565.881653,641.635742 572.618408,644.974182 
	C581.381104,649.316528 584.972351,657.000366 582.974060,666.963379 
	C581.578552,673.921143 573.697327,680.568115 565.797363,680.938293 
	C559.327087,681.241455 552.820557,681.236328 546.349792,680.938721 
	C538.449402,680.575378 537.074280,678.300110 538.502686,669.043213 
	C547.394897,672.562134 556.413330,674.443481 565.995483,672.101074 
	C570.995117,670.878845 573.346924,667.735291 573.975708,662.987366 
	C574.611328,658.186951 571.663391,655.131592 568.021423,653.104736 
	C563.716614,650.708862 559.011841,649.031982 554.091553,647.007568 
z"/>
<path fill="#FFFFFF" opacity="1.000000" stroke="none" 
	d="
M430.892029,618.000000 
	C425.098206,618.000000 419.794312,618.000000 414.247803,618.000000 
	C414.247803,615.310120 414.247803,612.905029 414.247803,610.246582 
	C431.680023,610.246582 449.092041,610.246582 466.752563,610.246582 
	C466.752563,612.690613 466.752563,615.095764 466.752563,617.902100 
	C459.659393,617.902100 452.573273,617.902100 445.097473,617.902100 
	C445.097473,639.031006 445.097473,659.771790 445.097473,680.754333 
	C441.969849,680.754333 439.232452,680.754333 436.094971,680.754333 
	C436.094971,659.977661 436.094971,639.234253 436.094971,618.000000 
	C434.265930,618.000000 432.823914,618.000000 430.892029,618.000000 
z"/>
<path fill="#FFFFFF" opacity="1.000000" stroke="none" 
	d="
M149.000000,645.000000 
	C149.000000,633.191223 149.000000,621.882385 149.000000,610.287476 
	C151.948792,610.287476 154.687836,610.287476 157.825226,610.287476 
	C157.825226,630.604309 157.825226,651.014832 157.825226,671.825012 
	C168.278824,671.825012 178.355331,671.825012 188.713211,671.825012 
	C188.713211,674.949158 188.713211,677.686768 188.713211,680.717651 
	C175.726669,680.717651 162.650543,680.717651 149.000000,680.717651 
	C149.000000,669.025452 149.000000,657.262756 149.000000,645.000000 
z"/>
<path fill="#FFFFFF" opacity="1.000000" stroke="none" 
	d="
M205.000000,636.000000 
	C205.000000,651.142273 205.000000,665.784607 205.000000,680.712952 
	C202.050247,680.712952 199.311096,680.712952 196.282333,680.712952 
	C196.282333,657.392151 196.282333,633.983704 196.282333,610.287109 
	C198.949692,610.287109 201.688843,610.287109 205.000000,610.287109 
	C205.000000,618.627014 205.000000,627.063538 205.000000,636.000000 
z"/>
<path fill="#000000" opacity="1.000000" stroke="none" 
	d="
M762.241455,662.267456 
	C758.574524,663.614868 755.720947,665.843140 751.500244,664.305664 
	C747.302917,662.776611 745.564880,660.266785 746.127075,656.418396 
	C746.687256,652.583313 749.338074,650.202393 753.475342,650.007385 
	C754.465271,649.960693 755.478149,649.875854 756.447754,650.023621 
	C759.232910,650.447754 762.001282,650.981995 764.776245,651.472961 
	C764.026855,654.975525 763.277466,658.478149 762.241455,662.267456 
z"/>
<path fill="#000000" opacity="1.000000" stroke="none" 
	d="
M491.224060,619.012207 
	C506.669983,613.419922 520.085083,622.061646 522.210876,638.241638 
	C523.046143,644.598877 522.064270,650.376099 521.073975,656.441650 
	C518.045959,674.988098 494.564850,677.629150 484.823700,667.830994 
	C480.836761,663.820679 478.091156,657.331848 477.331329,651.630615 
	C475.975250,641.455261 476.512665,630.961243 484.683838,622.947937 
	C486.378784,621.285767 488.752411,620.315552 491.224060,619.012207 
z"/>
<path fill="#000000" opacity="1.000000" stroke="none" 
	d="
M110.979248,627.991333 
	C111.501358,626.671997 112.003792,625.752136 113.116013,623.715942 
	C116.623100,633.062256 119.720512,641.316711 122.917572,649.836792 
	C116.168846,649.836792 109.786568,649.836792 102.701080,649.836792 
	C105.525238,642.502930 108.242409,635.446960 110.979248,627.991333 
z"/>
</svg>